# MagicaVoxel @ Ephtracy

# material
mtllib book.mtl
usemtl palette

# normals
vn -1 0 0
vn 1 0 0
vn 0 0 1
vn 0 0 -1
vn 0 -1 0
vn 0 1 0

# texcoords
vt 0.00195313 0.5
vt 0.107422 0.5
vt 0.111328 0.5
vt 0.115234 0.5
vt 0.119141 0.5
vt 0.123047 0.5

# verts
v -6 0 8.5
v -6 0 -8.5
v -6 1 8.5
v -6 1 -8.5
v -5 1 7.5
v -5 1 6.5
v -5 1 0.5
v -5 1 -0.5
v -5 1 -6.5
v -5 1 -7.5
v -5 2 7.5
v -5 2 6.5
v -5 2 5.5
v -5 2 0.5
v -5 2 -0.5
v -5 2 -2.5
v -5 2 -6.5
v -5 2 -7.5
v -5 3 6.5
v -5 3 5.5
v -5 3 0.5
v -5 3 -0.5
v -5 3 -2.5
v -5 3 -6.5
v 5 1 7.5
v 5 1 6.5
v 5 1 0.5
v 5 1 -0.5
v 5 1 -6.5
v 5 1 -7.5
v 5 2 7.5
v 5 2 6.5
v 5 2 2.5
v 5 2 0.5
v 5 2 -0.5
v 5 2 -6.5
v 5 2 -7.5
v 5 3 6.5
v 5 3 2.5
v 5 3 0.5
v 5 3 -0.5
v 5 3 -6.5
v 6 0 8.5
v 6 0 -8.5
v 6 1 8.5
v 6 1 -8.5
v -6 0 8.5
v -6 1 8.5
v 6 0 8.5
v 6 1 8.5
v -5 1 7.5
v -5 2 7.5
v 5 1 7.5
v 5 2 7.5
v -5 2 6.5
v -5 3 6.5
v -4 2 6.5
v -4 3 6.5
v 5 2 6.5
v 5 3 6.5
v -5 2 -0.5
v -5 3 -0.5
v -4 2 -0.5
v -4 3 -0.5
v 5 2 -0.5
v 5 3 -0.5
v -5 2 0.5
v -5 3 0.5
v 1 2 0.5
v 1 3 0.5
v 2 2 0.5
v 2 3 0.5
v 4 2 0.5
v 4 3 0.5
v 5 2 0.5
v 5 3 0.5
v -5 2 -6.5
v -5 3 -6.5
v 5 2 -6.5
v 5 3 -6.5
v -5 1 -7.5
v -5 2 -7.5
v 5 1 -7.5
v 5 2 -7.5
v -6 0 -8.5
v -6 1 -8.5
v 6 0 -8.5
v 6 1 -8.5
v -6 0 8.5
v 6 0 8.5
v -6 0 -8.5
v 6 0 -8.5
v -6 1 8.5
v 6 1 8.5
v -5 1 7.5
v 5 1 7.5
v -5 1 6.5
v 5 1 6.5
v -5 1 0.5
v 5 1 0.5
v -5 1 -0.5
v 5 1 -0.5
v -5 1 -6.5
v 5 1 -6.5
v -5 1 -7.5
v 5 1 -7.5
v -6 1 -8.5
v 6 1 -8.5
v -5 2 7.5
v 5 2 7.5
v -5 2 6.5
v -4 2 6.5
v 5 2 6.5
v -5 2 0.5
v 1 2 0.5
v 2 2 0.5
v 4 2 0.5
v 5 2 0.5
v -5 2 -0.5
v -4 2 -0.5
v 5 2 -0.5
v -5 2 -6.5
v 5 2 -6.5
v -5 2 -7.5
v 5 2 -7.5
v -5 3 6.5
v -4 3 6.5
v 5 3 6.5
v -5 3 5.5
v -4 3 5.5
v -3 3 5.5
v -2 3 5.5
v -1 3 5.5
v 2 3 5.5
v 3 3 5.5
v 0 3 4.5
v 1 3 4.5
v 2 3 4.5
v 3 3 4.5
v -2 3 3.5
v -1 3 3.5
v 0 3 3.5
v 2 3 3.5
v 3 3 3.5
v -2 3 2.5
v -1 3 2.5
v 0 3 2.5
v 4 3 2.5
v 5 3 2.5
v -4 3 1.5
v -3 3 1.5
v -2 3 1.5
v -1 3 1.5
v 0 3 1.5
v 1 3 1.5
v 2 3 1.5
v 3 3 1.5
v -5 3 0.5
v 1 3 0.5
v 2 3 0.5
v 4 3 0.5
v 5 3 0.5
v -5 3 -0.5
v -4 3 -0.5
v 5 3 -0.5
v -2 3 -1.5
v -1 3 -1.5
v 0 3 -1.5
v 1 3 -1.5
v 2 3 -1.5
v 3 3 -1.5
v -5 3 -2.5
v -4 3 -2.5
v -3 3 -2.5
v 0 3 -2.5
v 1 3 -2.5
v 0 3 -3.5
v 1 3 -3.5
v -4 3 -5.5
v -3 3 -5.5
v -2 3 -5.5
v -1 3 -5.5
v 0 3 -5.5
v 1 3 -5.5
v 2 3 -5.5
v 3 3 -5.5
v -5 3 -6.5
v 5 3 -6.5

# faces
f 3/2/1 2/2/1 1/2/1
f 4/2/1 2/2/1 3/2/1
f 11/4/1 6/4/1 5/4/1
f 12/6/1 7/6/1 6/6/1
f 12/4/1 6/4/1 11/4/1
f 13/6/1 7/6/1 12/6/1
f 14/3/1 8/3/1 7/3/1
f 14/6/1 7/6/1 13/6/1
f 15/6/1 9/6/1 8/6/1
f 15/3/1 8/3/1 14/3/1
f 16/6/1 9/6/1 15/6/1
f 17/4/1 10/4/1 9/4/1
f 17/6/1 9/6/1 16/6/1
f 18/4/1 10/4/1 17/4/1
f 19/5/1 13/5/1 12/5/1
f 20/6/1 14/6/1 13/6/1
f 20/5/1 13/5/1 19/5/1
f 21/6/1 14/6/1 20/6/1
f 22/5/1 16/5/1 15/5/1
f 23/6/1 17/6/1 16/6/1
f 23/5/1 16/5/1 22/5/1
f 24/6/1 17/6/1 23/6/1
f 25/4/2 26/4/2 31/4/2
f 26/6/2 27/6/2 32/6/2
f 31/4/2 26/4/2 32/4/2
f 32/6/2 27/6/2 33/6/2
f 27/3/2 28/3/2 34/3/2
f 33/6/2 27/6/2 34/6/2
f 28/6/2 29/6/2 35/6/2
f 34/3/2 28/3/2 35/3/2
f 29/4/2 30/4/2 36/4/2
f 35/6/2 29/6/2 36/6/2
f 36/4/2 30/4/2 37/4/2
f 32/6/2 33/6/2 38/6/2
f 33/5/2 34/5/2 39/5/2
f 38/6/2 33/6/2 39/6/2
f 39/5/2 34/5/2 40/5/2
f 35/6/2 36/6/2 41/6/2
f 41/6/2 36/6/2 42/6/2
f 43/2/2 44/2/2 45/2/2
f 45/2/2 44/2/2 46/2/2
f 49/2/3 48/2/3 47/2/3
f 50/2/3 48/2/3 49/2/3
f 53/4/3 52/4/3 51/4/3
f 54/4/3 52/4/3 53/4/3
f 57/5/3 56/5/3 55/5/3
f 58/5/3 56/5/3 57/5/3
f 59/6/3 58/6/3 57/6/3
f 60/6/3 58/6/3 59/6/3
f 63/5/3 62/5/3 61/5/3
f 64/5/3 62/5/3 63/5/3
f 65/6/3 64/6/3 63/6/3
f 66/6/3 64/6/3 65/6/3
f 67/6/4 68/6/4 69/6/4
f 69/6/4 68/6/4 70/6/4
f 69/5/4 70/5/4 71/5/4
f 71/5/4 70/5/4 72/5/4
f 71/6/4 72/6/4 73/6/4
f 73/6/4 72/6/4 74/6/4
f 73/5/4 74/5/4 75/5/4
f 75/5/4 74/5/4 76/5/4
f 77/6/4 78/6/4 79/6/4
f 79/6/4 78/6/4 80/6/4
f 81/4/4 82/4/4 83/4/4
f 83/4/4 82/4/4 84/4/4
f 85/2/4 86/2/4 87/2/4
f 87/2/4 86/2/4 88/2/4
f 91/2/5 90/2/5 89/2/5
f 92/2/5 90/2/5 91/2/5
f 93/2/6 94/2/6 95/2/6
f 95/2/6 94/2/6 96/2/6
f 93/2/6 95/2/6 97/2/6
f 96/2/6 94/2/6 98/2/6
f 93/2/6 97/2/6 99/2/6
f 98/2/6 94/2/6 100/2/6
f 93/2/6 99/2/6 101/2/6
f 100/2/6 94/2/6 102/2/6
f 93/2/6 101/2/6 103/2/6
f 102/2/6 94/2/6 104/2/6
f 93/2/6 103/2/6 105/2/6
f 104/2/6 94/2/6 106/2/6
f 93/2/6 105/2/6 107/2/6
f 105/2/6 106/2/6 107/2/6
f 106/2/6 94/2/6 108/2/6
f 107/2/6 106/2/6 108/2/6
f 109/4/6 110/4/6 111/4/6
f 111/4/6 110/4/6 112/4/6
f 112/4/6 110/4/6 113/4/6
f 114/3/6 115/3/6 119/3/6
f 117/3/6 118/3/6 119/3/6
f 116/3/6 117/3/6 119/3/6
f 115/3/6 116/3/6 119/3/6
f 119/3/6 118/3/6 120/3/6
f 120/3/6 118/3/6 121/3/6
f 122/4/6 123/4/6 124/4/6
f 124/4/6 123/4/6 125/4/6
f 126/5/6 127/5/6 129/5/6
f 127/6/6 128/6/6 130/6/6
f 129/5/6 127/5/6 130/5/6
f 130/6/6 128/6/6 131/6/6
f 131/6/6 128/6/6 132/6/6
f 132/6/6 128/6/6 133/6/6
f 133/6/6 128/6/6 134/6/6
f 134/6/6 128/6/6 135/6/6
f 133/6/6 134/6/6 136/6/6
f 136/6/6 134/6/6 137/6/6
f 134/1/6 135/1/6 138/1/6
f 137/6/6 134/6/6 138/6/6
f 135/6/6 128/6/6 139/6/6
f 138/1/6 135/1/6 139/1/6
f 131/6/6 132/6/6 140/6/6
f 132/1/6 133/1/6 140/1/6
f 133/6/6 136/6/6 141/6/6
f 140/1/6 133/1/6 141/1/6
f 136/1/6 137/1/6 142/1/6
f 141/6/6 136/6/6 142/6/6
f 138/6/6 139/6/6 143/6/6
f 137/6/6 138/6/6 143/6/6
f 139/6/6 128/6/6 144/6/6
f 143/6/6 139/6/6 144/6/6
f 140/6/6 141/6/6 145/6/6
f 131/6/6 140/6/6 145/6/6
f 141/5/6 142/5/6 146/5/6
f 145/6/6 141/6/6 146/6/6
f 142/1/6 137/1/6 147/1/6
f 146/5/6 142/5/6 147/5/6
f 144/6/6 128/6/6 148/6/6
f 148/6/6 128/6/6 149/6/6
f 129/6/6 130/6/6 150/6/6
f 130/1/6 131/1/6 150/1/6
f 131/6/6 145/6/6 151/6/6
f 150/1/6 131/1/6 151/1/6
f 145/1/6 146/1/6 152/1/6
f 151/6/6 145/6/6 152/6/6
f 146/6/6 147/6/6 153/6/6
f 152/1/6 146/1/6 153/1/6
f 147/1/6 137/1/6 154/1/6
f 153/6/6 147/6/6 154/6/6
f 137/6/6 143/6/6 155/6/6
f 154/1/6 137/1/6 155/1/6
f 143/1/6 144/1/6 156/1/6
f 155/6/6 143/6/6 156/6/6
f 144/6/6 148/6/6 157/6/6
f 156/1/6 144/1/6 157/1/6
f 153/6/6 154/6/6 158/6/6
f 150/6/6 151/6/6 158/6/6
f 129/6/6 150/6/6 158/6/6
f 152/6/6 153/6/6 158/6/6
f 151/6/6 152/6/6 158/6/6
f 154/6/6 155/6/6 158/6/6
f 155/5/6 156/5/6 159/5/6
f 158/6/6 155/6/6 159/6/6
f 156/6/6 157/6/6 160/6/6
f 159/5/6 156/5/6 160/5/6
f 148/5/6 149/5/6 161/5/6
f 160/6/6 157/6/6 161/6/6
f 157/6/6 148/6/6 161/6/6
f 161/5/6 149/5/6 162/5/6
f 164/6/6 165/6/6 166/6/6
f 166/6/6 165/6/6 167/6/6
f 167/6/6 165/6/6 168/6/6
f 168/6/6 165/6/6 169/6/6
f 169/6/6 165/6/6 170/6/6
f 170/6/6 165/6/6 171/6/6
f 163/5/6 164/5/6 172/5/6
f 164/6/6 166/6/6 173/6/6
f 172/5/6 164/5/6 173/5/6
f 173/6/6 166/6/6 174/6/6
f 167/6/6 168/6/6 175/6/6
f 168/1/6 169/1/6 175/1/6
f 169/6/6 170/6/6 176/6/6
f 175/1/6 169/1/6 176/1/6
f 167/6/6 175/6/6 177/6/6
f 175/6/6 176/6/6 177/6/6
f 176/6/6 170/6/6 178/6/6
f 177/6/6 176/6/6 178/6/6
f 173/1/6 174/1/6 179/1/6
f 172/6/6 173/6/6 179/6/6
f 174/6/6 166/6/6 180/6/6
f 179/1/6 174/1/6 180/1/6
f 166/1/6 167/1/6 181/1/6
f 180/6/6 166/6/6 181/6/6
f 167/6/6 177/6/6 182/6/6
f 181/1/6 167/1/6 182/1/6
f 177/1/6 178/1/6 183/1/6
f 182/6/6 177/6/6 183/6/6
f 178/6/6 170/6/6 184/6/6
f 183/1/6 178/1/6 184/1/6
f 170/1/6 171/1/6 185/1/6
f 184/6/6 170/6/6 185/6/6
f 171/6/6 165/6/6 186/6/6
f 185/1/6 171/1/6 186/1/6
f 184/6/6 185/6/6 187/6/6
f 179/6/6 180/6/6 187/6/6
f 185/6/6 186/6/6 187/6/6
f 181/6/6 182/6/6 187/6/6
f 183/6/6 184/6/6 187/6/6
f 180/6/6 181/6/6 187/6/6
f 182/6/6 183/6/6 187/6/6
f 172/6/6 179/6/6 187/6/6
f 186/6/6 165/6/6 188/6/6
f 187/6/6 186/6/6 188/6/6
