# MagicaVoxel @ Ephtracy

# material
mtllib bottle_cup.mtl
usemtl palette

# normals
vn -1 0 0
vn 1 0 0
vn 0 0 1
vn 0 0 -1
vn 0 -1 0
vn 0 1 0

# texcoords
vt 0.0527344 0.5
vt 0.0566406 0.5
vt 0.0917969 0.5
vt 0.107422 0.5
vt 0.111328 0.5
vt 0.123047 0.5

# verts
v -5.5 0 6
v -5.5 0 -0
v -5.5 3 6
v -5.5 3 -0
v -5.5 6 6
v -5.5 6 -0
v -5.5 9 6
v -5.5 9 -0
v -5.5 12 6
v -5.5 12 5
v -5.5 12 1
v -5.5 12 -0
v -5.5 15 5
v -5.5 15 1
v -4.5 12 6
v -4.5 12 5
v -4.5 12 1
v -4.5 12 -0
v -4.5 15 6
v -4.5 15 5
v -4.5 15 2
v -4.5 15 1
v -4.5 15 -0
v -4.5 18 5
v -4.5 18 2
v -3.5 15 2
v -3.5 15 1
v -3.5 18 4
v -3.5 18 2
v -3.5 18 1
v -3.5 19 4
v -3.5 19 2
v 2.5 0 -3
v 2.5 0 -4
v 2.5 0 -5
v 2.5 0 -6
v 2.5 1 -3
v 2.5 1 -4
v 2.5 1 -5
v 2.5 1 -6
v 2.5 2 -3
v 2.5 2 -4
v 2.5 2 -5
v 2.5 2 -6
v 2.5 3 -3
v 2.5 3 -6
v 4.5 1 -4
v 4.5 1 -5
v 4.5 3 -4
v 4.5 3 -5
v -1.5 15 5
v -1.5 15 4
v -1.5 15 2
v -1.5 15 1
v -1.5 18 5
v -1.5 18 4
v -1.5 18 2
v -1.5 18 1
v -1.5 19 4
v -1.5 19 2
v -0.5 12 6
v -0.5 12 5
v -0.5 12 1
v -0.5 12 -0
v -0.5 15 6
v -0.5 15 5
v -0.5 15 4
v -0.5 15 2
v -0.5 15 1
v -0.5 15 -0
v -0.5 18 4
v -0.5 18 2
v 0.5 0 6
v 0.5 0 -0
v 0.5 3 6
v 0.5 3 -0
v 0.5 5 5
v 0.5 5 1
v 0.5 6 6
v 0.5 6 5
v 0.5 6 4
v 0.5 6 2
v 0.5 6 1
v 0.5 6 -0
v 0.5 9 6
v 0.5 9 5
v 0.5 9 4
v 0.5 9 2
v 0.5 9 1
v 0.5 9 -0
v 0.5 10 5
v 0.5 10 1
v 0.5 12 6
v 0.5 12 5
v 0.5 12 1
v 0.5 12 -0
v 0.5 15 5
v 0.5 15 1
v 3.5 1 -4
v 3.5 1 -5
v 3.5 3 -4
v 3.5 3 -5
v 5.5 0 -3
v 5.5 0 -4
v 5.5 0 -5
v 5.5 0 -6
v 5.5 1 -3
v 5.5 1 -4
v 5.5 1 -5
v 5.5 1 -6
v 5.5 2 -3
v 5.5 2 -4
v 5.5 2 -5
v 5.5 2 -6
v 5.5 3 -3
v 5.5 3 -6
v -5.5 0 6
v -5.5 3 6
v -5.5 6 6
v -5.5 9 6
v -5.5 12 6
v -4.5 12 6
v -4.5 15 6
v -0.5 12 6
v -0.5 15 6
v 0.5 0 6
v 0.5 3 6
v 0.5 6 6
v 0.5 9 6
v 0.5 12 6
v -5.5 12 5
v -5.5 15 5
v -4.5 12 5
v -4.5 15 5
v -4.5 18 5
v -1.5 15 5
v -1.5 18 5
v -0.5 12 5
v -0.5 15 5
v 0.5 12 5
v 0.5 15 5
v -3.5 18 4
v -3.5 19 4
v -1.5 15 4
v -1.5 18 4
v -1.5 19 4
v -0.5 15 4
v -0.5 18 4
v 2.5 0 -3
v 2.5 1 -3
v 2.5 2 -3
v 2.5 3 -3
v 3.5 0 -3
v 3.5 1 -3
v 3.5 2 -3
v 4.5 0 -3
v 4.5 1 -3
v 4.5 2 -3
v 5.5 0 -3
v 5.5 1 -3
v 5.5 2 -3
v 5.5 3 -3
v 3.5 1 -5
v 3.5 3 -5
v 4.5 1 -5
v 4.5 3 -5
v -4.5 15 2
v -4.5 18 2
v -3.5 15 2
v -3.5 18 2
v -3.5 19 2
v -1.5 15 2
v -1.5 18 2
v -1.5 19 2
v -0.5 15 2
v -0.5 18 2
v -5.5 12 1
v -5.5 15 1
v -4.5 12 1
v -4.5 15 1
v -3.5 15 1
v -3.5 18 1
v -1.5 15 1
v -1.5 18 1
v -0.5 12 1
v -0.5 15 1
v 0.5 12 1
v 0.5 15 1
v -5.5 0 -0
v -5.5 3 -0
v -5.5 6 -0
v -5.5 9 -0
v -5.5 12 -0
v -4.5 12 -0
v -4.5 15 -0
v -0.5 12 -0
v -0.5 15 -0
v 0.5 0 -0
v 0.5 3 -0
v 0.5 6 -0
v 0.5 9 -0
v 0.5 12 -0
v 3.5 1 -4
v 3.5 3 -4
v 4.5 1 -4
v 4.5 3 -4
v 2.5 0 -6
v 2.5 1 -6
v 2.5 2 -6
v 2.5 3 -6
v 3.5 0 -6
v 3.5 1 -6
v 3.5 2 -6
v 4.5 0 -6
v 4.5 1 -6
v 4.5 2 -6
v 5.5 0 -6
v 5.5 1 -6
v 5.5 2 -6
v 5.5 3 -6
v -5.5 0 6
v 0.5 0 6
v -5.5 0 -0
v 0.5 0 -0
v 2.5 0 -3
v 3.5 0 -3
v 4.5 0 -3
v 5.5 0 -3
v 2.5 0 -4
v 3.5 0 -4
v 4.5 0 -4
v 5.5 0 -4
v 2.5 0 -5
v 3.5 0 -5
v 4.5 0 -5
v 5.5 0 -5
v 2.5 0 -6
v 3.5 0 -6
v 4.5 0 -6
v 5.5 0 -6
v 3.5 1 -4
v 4.5 1 -4
v 3.5 1 -5
v 4.5 1 -5
v 2.5 3 -3
v 5.5 3 -3
v 3.5 3 -4
v 4.5 3 -4
v 3.5 3 -5
v 4.5 3 -5
v 2.5 3 -6
v 5.5 3 -6
v -5.5 12 6
v -4.5 12 6
v -0.5 12 6
v 0.5 12 6
v -5.5 12 5
v -4.5 12 5
v -0.5 12 5
v 0.5 12 5
v -5.5 12 1
v -4.5 12 1
v -0.5 12 1
v 0.5 12 1
v -5.5 12 -0
v -4.5 12 -0
v -0.5 12 -0
v 0.5 12 -0
v -4.5 15 6
v -0.5 15 6
v -5.5 15 5
v -4.5 15 5
v -1.5 15 5
v -0.5 15 5
v 0.5 15 5
v -1.5 15 4
v -0.5 15 4
v -4.5 15 2
v -3.5 15 2
v -1.5 15 2
v -0.5 15 2
v -5.5 15 1
v -4.5 15 1
v -3.5 15 1
v -1.5 15 1
v -0.5 15 1
v 0.5 15 1
v -4.5 15 -0
v -0.5 15 -0
v -4.5 18 5
v -1.5 18 5
v -3.5 18 4
v -1.5 18 4
v -0.5 18 4
v -4.5 18 2
v -3.5 18 2
v -1.5 18 2
v -0.5 18 2
v -3.5 18 1
v -1.5 18 1
v -3.5 19 4
v -1.5 19 4
v -3.5 19 2
v -1.5 19 2

# faces
f 3/4/1 2/4/1 1/4/1
f 4/4/1 2/4/1 3/4/1
f 5/5/1 4/5/1 3/5/1
f 6/5/1 4/5/1 5/5/1
f 7/6/1 6/6/1 5/6/1
f 8/6/1 6/6/1 7/6/1
f 9/5/1 8/5/1 7/5/1
f 10/5/1 8/5/1 9/5/1
f 11/5/1 8/5/1 10/5/1
f 12/5/1 8/5/1 11/5/1
f 13/5/1 11/5/1 10/5/1
f 14/5/1 11/5/1 13/5/1
f 19/5/1 16/5/1 15/5/1
f 20/5/1 16/5/1 19/5/1
f 22/5/1 18/5/1 17/5/1
f 23/5/1 18/5/1 22/5/1
f 24/5/1 21/5/1 20/5/1
f 25/5/1 21/5/1 24/5/1
f 29/5/1 27/5/1 26/5/1
f 30/5/1 27/5/1 29/5/1
f 31/5/1 29/5/1 28/5/1
f 32/5/1 29/5/1 31/5/1
f 37/1/1 34/1/1 33/1/1
f 38/2/1 35/2/1 34/2/1
f 38/1/1 34/1/1 37/1/1
f 39/1/1 36/1/1 35/1/1
f 39/2/1 35/2/1 38/2/1
f 40/1/1 36/1/1 39/1/1
f 41/2/1 38/2/1 37/2/1
f 42/1/1 39/1/1 38/1/1
f 42/2/1 38/2/1 41/2/1
f 43/2/1 40/2/1 39/2/1
f 43/1/1 39/1/1 42/1/1
f 44/2/1 40/2/1 43/2/1
f 45/1/1 42/1/1 41/1/1
f 45/1/1 43/1/1 42/1/1
f 45/1/1 44/1/1 43/1/1
f 46/1/1 44/1/1 45/1/1
f 49/1/1 48/1/1 47/1/1
f 50/1/1 48/1/1 49/1/1
f 51/5/2 52/5/2 55/5/2
f 55/5/2 52/5/2 56/5/2
f 53/5/2 54/5/2 57/5/2
f 57/5/2 54/5/2 58/5/2
f 56/5/2 57/5/2 59/5/2
f 59/5/2 57/5/2 60/5/2
f 61/5/2 62/5/2 65/5/2
f 65/5/2 62/5/2 66/5/2
f 63/5/2 64/5/2 69/5/2
f 69/5/2 64/5/2 70/5/2
f 67/5/2 68/5/2 71/5/2
f 71/5/2 68/5/2 72/5/2
f 73/4/2 74/4/2 75/4/2
f 75/4/2 74/4/2 76/4/2
f 75/5/2 76/5/2 77/5/2
f 77/5/2 76/5/2 78/5/2
f 75/5/2 77/5/2 79/5/2
f 77/6/2 78/6/2 80/6/2
f 79/5/2 77/5/2 80/5/2
f 80/6/2 78/6/2 81/6/2
f 81/6/2 78/6/2 82/6/2
f 78/5/2 76/5/2 83/5/2
f 82/6/2 78/6/2 83/6/2
f 83/5/2 76/5/2 84/5/2
f 79/6/2 80/6/2 85/6/2
f 80/6/2 81/6/2 85/6/2
f 85/6/2 81/6/2 86/6/2
f 81/3/2 82/3/2 87/3/2
f 86/6/2 81/6/2 87/6/2
f 83/6/2 84/6/2 88/6/2
f 87/3/2 82/3/2 88/3/2
f 82/6/2 83/6/2 88/6/2
f 88/6/2 84/6/2 89/6/2
f 89/6/2 84/6/2 90/6/2
f 85/5/2 86/5/2 91/5/2
f 86/6/2 87/6/2 91/6/2
f 87/6/2 88/6/2 91/6/2
f 88/6/2 89/6/2 91/6/2
f 89/5/2 90/5/2 92/5/2
f 91/6/2 89/6/2 92/6/2
f 85/5/2 91/5/2 93/5/2
f 91/5/2 92/5/2 93/5/2
f 93/5/2 92/5/2 94/5/2
f 92/5/2 90/5/2 95/5/2
f 94/5/2 92/5/2 95/5/2
f 95/5/2 90/5/2 96/5/2
f 94/5/2 95/5/2 97/5/2
f 97/5/2 95/5/2 98/5/2
f 99/1/2 100/1/2 101/1/2
f 101/1/2 100/1/2 102/1/2
f 103/1/2 104/1/2 107/1/2
f 104/2/2 105/2/2 108/2/2
f 107/1/2 104/1/2 108/1/2
f 105/1/2 106/1/2 109/1/2
f 108/2/2 105/2/2 109/2/2
f 109/1/2 106/1/2 110/1/2
f 107/2/2 108/2/2 111/2/2
f 108/1/2 109/1/2 112/1/2
f 111/2/2 108/2/2 112/2/2
f 109/2/2 110/2/2 113/2/2
f 112/1/2 109/1/2 113/1/2
f 113/2/2 110/2/2 114/2/2
f 111/1/2 112/1/2 115/1/2
f 112/1/2 113/1/2 115/1/2
f 113/1/2 114/1/2 115/1/2
f 115/1/2 114/1/2 116/1/2
f 122/5/3 121/5/3 120/5/3
f 124/5/3 122/5/3 120/5/3
f 124/5/3 123/5/3 122/5/3
f 125/5/3 123/5/3 124/5/3
f 126/4/3 118/4/3 117/4/3
f 127/5/3 119/5/3 118/5/3
f 127/4/3 118/4/3 126/4/3
f 128/6/3 120/6/3 119/6/3
f 128/5/3 119/5/3 127/5/3
f 129/5/3 124/5/3 120/5/3
f 129/6/3 120/6/3 128/6/3
f 130/5/3 124/5/3 129/5/3
f 133/5/3 132/5/3 131/5/3
f 134/5/3 132/5/3 133/5/3
f 136/5/3 135/5/3 134/5/3
f 137/5/3 135/5/3 136/5/3
f 140/5/3 139/5/3 138/5/3
f 141/5/3 139/5/3 140/5/3
f 145/5/3 143/5/3 142/5/3
f 146/5/3 143/5/3 145/5/3
f 147/5/3 145/5/3 144/5/3
f 148/5/3 145/5/3 147/5/3
f 153/1/3 150/1/3 149/1/3
f 154/2/3 151/2/3 150/2/3
f 154/1/3 150/1/3 153/1/3
f 155/1/3 152/1/3 151/1/3
f 155/2/3 151/2/3 154/2/3
f 156/2/3 154/2/3 153/2/3
f 157/1/3 155/1/3 154/1/3
f 157/2/3 154/2/3 156/2/3
f 158/1/3 152/1/3 155/1/3
f 158/1/3 155/1/3 157/1/3
f 159/1/3 157/1/3 156/1/3
f 160/2/3 158/2/3 157/2/3
f 160/1/3 157/1/3 159/1/3
f 161/1/3 152/1/3 158/1/3
f 161/2/3 158/2/3 160/2/3
f 162/1/3 152/1/3 161/1/3
f 165/1/3 164/1/3 163/1/3
f 166/1/3 164/1/3 165/1/3
f 167/5/4 168/5/4 169/5/4
f 169/5/4 168/5/4 170/5/4
f 170/5/4 171/5/4 173/5/4
f 173/5/4 171/5/4 174/5/4
f 172/5/4 173/5/4 175/5/4
f 175/5/4 173/5/4 176/5/4
f 177/5/4 178/5/4 179/5/4
f 179/5/4 178/5/4 180/5/4
f 181/5/4 182/5/4 183/5/4
f 183/5/4 182/5/4 184/5/4
f 185/5/4 186/5/4 187/5/4
f 187/5/4 186/5/4 188/5/4
f 192/5/4 193/5/4 194/5/4
f 192/5/4 194/5/4 196/5/4
f 194/5/4 195/5/4 196/5/4
f 196/5/4 195/5/4 197/5/4
f 189/4/4 190/4/4 198/4/4
f 190/5/4 191/5/4 199/5/4
f 198/4/4 190/4/4 199/4/4
f 191/6/4 192/6/4 200/6/4
f 199/5/4 191/5/4 200/5/4
f 192/5/4 196/5/4 201/5/4
f 200/6/4 192/6/4 201/6/4
f 201/5/4 196/5/4 202/5/4
f 203/1/4 204/1/4 205/1/4
f 205/1/4 204/1/4 206/1/4
f 207/1/4 208/1/4 211/1/4
f 208/2/4 209/2/4 212/2/4
f 211/1/4 208/1/4 212/1/4
f 209/1/4 210/1/4 213/1/4
f 212/2/4 209/2/4 213/2/4
f 211/2/4 212/2/4 214/2/4
f 212/1/4 213/1/4 215/1/4
f 214/2/4 212/2/4 215/2/4
f 213/1/4 210/1/4 216/1/4
f 215/1/4 213/1/4 216/1/4
f 214/1/4 215/1/4 217/1/4
f 215/2/4 216/2/4 218/2/4
f 217/1/4 215/1/4 218/1/4
f 216/1/4 210/1/4 219/1/4
f 218/2/4 216/2/4 219/2/4
f 219/1/4 210/1/4 220/1/4
f 223/4/5 222/4/5 221/4/5
f 224/4/5 222/4/5 223/4/5
f 229/1/5 226/1/5 225/1/5
f 230/2/5 227/2/5 226/2/5
f 230/1/5 226/1/5 229/1/5
f 231/1/5 228/1/5 227/1/5
f 231/2/5 227/2/5 230/2/5
f 232/1/5 228/1/5 231/1/5
f 233/2/5 230/2/5 229/2/5
f 234/1/5 231/1/5 230/1/5
f 234/2/5 230/2/5 233/2/5
f 235/2/5 232/2/5 231/2/5
f 235/1/5 231/1/5 234/1/5
f 236/2/5 232/2/5 235/2/5
f 237/1/5 234/1/5 233/1/5
f 238/2/5 235/2/5 234/2/5
f 238/1/5 234/1/5 237/1/5
f 239/1/5 236/1/5 235/1/5
f 239/2/5 235/2/5 238/2/5
f 240/1/5 236/1/5 239/1/5
f 241/1/6 242/1/6 243/1/6
f 243/1/6 242/1/6 244/1/6
f 245/1/6 246/1/6 247/1/6
f 247/1/6 246/1/6 248/1/6
f 245/1/6 247/1/6 249/1/6
f 248/1/6 246/1/6 250/1/6
f 245/1/6 249/1/6 251/1/6
f 249/1/6 250/1/6 251/1/6
f 250/1/6 246/1/6 252/1/6
f 251/1/6 250/1/6 252/1/6
f 253/5/6 254/5/6 257/5/6
f 257/5/6 254/5/6 258/5/6
f 255/5/6 256/5/6 259/5/6
f 259/5/6 256/5/6 260/5/6
f 261/5/6 262/5/6 265/5/6
f 265/5/6 262/5/6 266/5/6
f 263/5/6 264/5/6 267/5/6
f 267/5/6 264/5/6 268/5/6
f 269/5/6 270/5/6 272/5/6
f 272/5/6 270/5/6 273/5/6
f 273/5/6 270/5/6 274/5/6
f 273/4/6 274/4/6 276/4/6
f 274/5/6 275/5/6 277/5/6
f 276/4/6 274/4/6 277/4/6
f 271/5/6 272/5/6 278/5/6
f 277/5/6 275/5/6 281/5/6
f 271/5/6 278/5/6 282/5/6
f 278/4/6 279/4/6 283/4/6
f 282/5/6 278/5/6 283/5/6
f 283/4/6 279/4/6 284/4/6
f 280/4/6 281/4/6 285/4/6
f 281/5/6 275/5/6 286/5/6
f 285/4/6 281/4/6 286/4/6
f 286/5/6 275/5/6 287/5/6
f 283/5/6 284/5/6 288/5/6
f 284/5/6 285/5/6 288/5/6
f 285/5/6 286/5/6 288/5/6
f 288/5/6 286/5/6 289/5/6
f 290/5/6 291/5/6 292/5/6
f 292/5/6 291/5/6 293/5/6
f 290/5/6 292/5/6 295/5/6
f 295/5/6 292/5/6 296/5/6
f 293/5/6 294/5/6 297/5/6
f 297/5/6 294/5/6 298/5/6
f 296/5/6 297/5/6 299/5/6
f 299/5/6 297/5/6 300/5/6
f 301/5/6 302/5/6 303/5/6
f 303/5/6 302/5/6 304/5/6
