# MagicaVoxel @ Ephtracy

# material
mtllib comfy-bed.mtl
usemtl palette

# normals
vn -1 0 0
vn 1 0 0
vn 0 0 1
vn 0 0 -1
vn 0 -1 0
vn 0 1 0

# texcoords
vt 0.0488281 0.5
vt 0.0527344 0.5
vt 0.107422 0.5
vt 0.111328 0.5

# verts
v -10 0 5
v -10 0 -5
v -10 1 5
v -10 1 -5
v -10 3 4
v -10 3 3
v -10 3 -3
v -10 3 -4
v -10 4 2
v -10 4 1
v -10 4 -1
v -10 4 -2
v -10 5 4
v -10 5 3
v -10 5 2
v -10 5 1
v -10 5 -1
v -10 5 -2
v -10 5 -3
v -10 5 -4
v -10 6 4
v -10 6 3
v -10 6 2
v -10 6 1
v -10 6 -1
v -10 6 -2
v -10 6 -3
v -10 6 -4
v -10 7 5
v -10 7 4
v -10 7 3
v -10 7 2
v -10 7 1
v -10 7 -1
v -10 7 -2
v -10 7 -3
v -10 7 -4
v -10 7 -5
v -10 8 4
v -10 8 -4
v -8 3 3
v -8 3 2
v -8 3 -2
v -8 3 -3
v -8 4 3
v -8 4 2
v -8 4 -2
v -8 4 -3
v -9 2 5
v -9 2 4
v -9 2 -4
v -9 2 -5
v -9 3 4
v -9 3 3
v -9 3 2
v -9 3 -2
v -9 3 -3
v -9 3 -4
v -9 4 2
v -9 4 1
v -9 4 -1
v -9 4 -2
v -9 5 4
v -9 5 3
v -9 5 2
v -9 5 1
v -9 5 -1
v -9 5 -2
v -9 5 -3
v -9 5 -4
v -9 6 4
v -9 6 3
v -9 6 2
v -9 6 1
v -9 6 -1
v -9 6 -2
v -9 6 -3
v -9 6 -4
v -9 7 5
v -9 7 4
v -9 7 3
v -9 7 2
v -9 7 1
v -9 7 -1
v -9 7 -2
v -9 7 -3
v -9 7 -4
v -9 7 -5
v -9 8 4
v -9 8 -4
v -6 3 3
v -6 3 2
v -6 3 -2
v -6 3 -3
v -6 4 3
v -6 4 2
v -6 4 -2
v -6 4 -3
v -5 3 2
v -5 3 -2
v -5 4 2
v -5 4 -2
v 8 2 4
v 8 2 3
v 8 2 -3
v 8 2 -4
v 8 3 4
v 8 3 3
v 8 3 -3
v 8 3 -4
v 9 2 3
v 9 2 -3
v 9 3 3
v 9 3 -3
v 10 0 5
v 10 0 -5
v 10 1 5
v 10 1 -5
v 10 2 5
v 10 2 -5
v -10 0 5
v -10 1 5
v -10 7 5
v -9 2 5
v -9 7 5
v 10 0 5
v 10 1 5
v 10 2 5
v -10 7 4
v -10 8 4
v -9 2 4
v -9 3 4
v -9 7 4
v -9 8 4
v 8 2 4
v 8 3 4
v -8 3 3
v -8 4 3
v -6 3 3
v -6 4 3
v 8 2 3
v 8 3 3
v 9 2 3
v 9 3 3
v -9 3 2
v -9 4 2
v -8 3 2
v -8 4 2
v -6 3 2
v -6 4 2
v -5 3 2
v -5 4 2
v -9 3 -2
v -9 4 -2
v -8 3 -2
v -8 4 -2
v -6 3 -2
v -6 4 -2
v -5 3 -2
v -5 4 -2
v -8 3 -3
v -8 4 -3
v -6 3 -3
v -6 4 -3
v 8 2 -3
v 8 3 -3
v 9 2 -3
v 9 3 -3
v -10 7 -4
v -10 8 -4
v -9 2 -4
v -9 3 -4
v -9 7 -4
v -9 8 -4
v 8 2 -4
v 8 3 -4
v -10 0 -5
v -10 1 -5
v -10 7 -5
v -9 2 -5
v -9 7 -5
v 10 0 -5
v 10 1 -5
v 10 2 -5
v -10 0 5
v 10 0 5
v -9 0 4
v 9 0 4
v -9 0 -4
v 9 0 -4
v -10 0 -5
v 10 0 -5
v -9 2 5
v 10 2 5
v -9 2 4
v 8 2 4
v 8 2 3
v 9 2 3
v 8 2 -3
v 9 2 -3
v -9 2 -4
v 8 2 -4
v -9 2 -5
v 10 2 -5
v -9 3 4
v 8 3 4
v -9 3 3
v -8 3 3
v -6 3 3
v 8 3 3
v 9 3 3
v -9 3 2
v -8 3 2
v -6 3 2
v -5 3 2
v -9 3 -2
v -8 3 -2
v -6 3 -2
v -5 3 -2
v -9 3 -3
v -8 3 -3
v -6 3 -3
v 8 3 -3
v 9 3 -3
v -9 3 -4
v 8 3 -4
v -8 4 3
v -6 4 3
v -9 4 2
v -8 4 2
v -6 4 2
v -5 4 2
v -9 4 1
v -9 4 -1
v -9 4 -2
v -8 4 -2
v -6 4 -2
v -5 4 -2
v -8 4 -3
v -6 4 -3
v -10 7 5
v -9 7 5
v -10 7 4
v -9 7 4
v -10 7 -4
v -9 7 -4
v -10 7 -5
v -9 7 -5
v -10 8 4
v -9 8 4
v -10 8 -4
v -9 8 -4

# faces
f 3/4/1 2/4/1 1/4/1
f 4/4/1 2/4/1 3/4/1
f 5/3/1 4/3/1 3/3/1
f 6/3/1 4/3/1 5/3/1
f 7/3/1 4/3/1 6/3/1
f 8/3/1 4/3/1 7/3/1
f 9/3/1 7/3/1 6/3/1
f 10/3/1 7/3/1 9/3/1
f 11/3/1 7/3/1 10/3/1
f 12/3/1 7/3/1 11/3/1
f 13/3/1 5/3/1 3/3/1
f 13/4/1 6/4/1 5/4/1
f 14/3/1 9/3/1 6/3/1
f 14/4/1 6/4/1 13/4/1
f 15/4/1 10/4/1 9/4/1
f 15/3/1 9/3/1 14/3/1
f 16/3/1 11/3/1 10/3/1
f 16/4/1 10/4/1 15/4/1
f 17/4/1 12/4/1 11/4/1
f 17/3/1 11/3/1 16/3/1
f 18/3/1 7/3/1 12/3/1
f 18/4/1 12/4/1 17/4/1
f 19/4/1 8/4/1 7/4/1
f 19/3/1 7/3/1 18/3/1
f 20/3/1 4/3/1 8/3/1
f 20/4/1 8/4/1 19/4/1
f 21/3/1 17/3/1 16/3/1
f 21/3/1 16/3/1 15/3/1
f 21/3/1 20/3/1 19/3/1
f 21/3/1 15/3/1 14/3/1
f 21/3/1 14/3/1 13/3/1
f 21/3/1 13/3/1 3/3/1
f 21/3/1 18/3/1 17/3/1
f 21/3/1 19/3/1 18/3/1
f 22/3/1 20/3/1 21/3/1
f 23/3/1 20/3/1 22/3/1
f 24/3/1 20/3/1 23/3/1
f 25/3/1 20/3/1 24/3/1
f 26/3/1 20/3/1 25/3/1
f 27/3/1 20/3/1 26/3/1
f 28/3/1 4/3/1 20/3/1
f 28/3/1 20/3/1 27/3/1
f 29/3/1 21/3/1 3/3/1
f 30/4/1 22/4/1 21/4/1
f 30/3/1 21/3/1 29/3/1
f 31/3/1 23/3/1 22/3/1
f 31/4/1 22/4/1 30/4/1
f 32/4/1 24/4/1 23/4/1
f 32/3/1 23/3/1 31/3/1
f 33/3/1 25/3/1 24/3/1
f 33/4/1 24/4/1 32/4/1
f 34/4/1 26/4/1 25/4/1
f 34/3/1 25/3/1 33/3/1
f 35/3/1 27/3/1 26/3/1
f 35/4/1 26/4/1 34/4/1
f 36/4/1 28/4/1 27/4/1
f 36/3/1 27/3/1 35/3/1
f 37/3/1 4/3/1 28/3/1
f 37/4/1 28/4/1 36/4/1
f 38/3/1 4/3/1 37/3/1
f 39/3/1 34/3/1 33/3/1
f 39/3/1 36/3/1 35/3/1
f 39/3/1 37/3/1 36/3/1
f 39/3/1 35/3/1 34/3/1
f 39/3/1 33/3/1 32/3/1
f 39/3/1 32/3/1 31/3/1
f 39/3/1 31/3/1 30/3/1
f 40/3/1 37/3/1 39/3/1
f 45/1/1 42/1/1 41/1/1
f 46/1/1 42/1/1 45/1/1
f 47/1/1 44/1/1 43/1/1
f 48/1/1 44/1/1 47/1/1
f 49/3/2 50/3/2 53/3/2
f 51/3/2 52/3/2 58/3/2
f 54/3/2 55/3/2 59/3/2
f 56/3/2 57/3/2 62/3/2
f 49/3/2 53/3/2 63/3/2
f 53/4/2 54/4/2 63/4/2
f 54/3/2 59/3/2 64/3/2
f 63/4/2 54/4/2 64/4/2
f 59/4/2 60/4/2 65/4/2
f 64/3/2 59/3/2 65/3/2
f 60/3/2 61/3/2 66/3/2
f 65/4/2 60/4/2 66/4/2
f 61/4/2 62/4/2 67/4/2
f 66/3/2 61/3/2 67/3/2
f 62/3/2 57/3/2 68/3/2
f 67/4/2 62/4/2 68/4/2
f 57/4/2 58/4/2 69/4/2
f 68/3/2 57/3/2 69/3/2
f 58/3/2 52/3/2 70/3/2
f 69/4/2 58/4/2 70/4/2
f 64/3/2 65/3/2 71/3/2
f 65/3/2 66/3/2 71/3/2
f 69/3/2 70/3/2 71/3/2
f 66/3/2 67/3/2 71/3/2
f 63/3/2 64/3/2 71/3/2
f 49/3/2 63/3/2 71/3/2
f 68/3/2 69/3/2 71/3/2
f 67/3/2 68/3/2 71/3/2
f 71/3/2 70/3/2 72/3/2
f 72/3/2 70/3/2 73/3/2
f 73/3/2 70/3/2 74/3/2
f 74/3/2 70/3/2 75/3/2
f 75/3/2 70/3/2 76/3/2
f 76/3/2 70/3/2 77/3/2
f 70/3/2 52/3/2 78/3/2
f 77/3/2 70/3/2 78/3/2
f 49/3/2 71/3/2 79/3/2
f 71/4/2 72/4/2 80/4/2
f 79/3/2 71/3/2 80/3/2
f 72/3/2 73/3/2 81/3/2
f 80/4/2 72/4/2 81/4/2
f 73/4/2 74/4/2 82/4/2
f 81/3/2 73/3/2 82/3/2
f 74/3/2 75/3/2 83/3/2
f 82/4/2 74/4/2 83/4/2
f 75/4/2 76/4/2 84/4/2
f 83/3/2 75/3/2 84/3/2
f 76/3/2 77/3/2 85/3/2
f 84/4/2 76/4/2 85/4/2
f 77/4/2 78/4/2 86/4/2
f 85/3/2 77/3/2 86/3/2
f 78/3/2 52/3/2 87/3/2
f 86/4/2 78/4/2 87/4/2
f 87/3/2 52/3/2 88/3/2
f 83/3/2 84/3/2 89/3/2
f 85/3/2 86/3/2 89/3/2
f 86/3/2 87/3/2 89/3/2
f 84/3/2 85/3/2 89/3/2
f 82/3/2 83/3/2 89/3/2
f 81/3/2 82/3/2 89/3/2
f 80/3/2 81/3/2 89/3/2
f 89/3/2 87/3/2 90/3/2
f 91/1/2 92/1/2 95/1/2
f 95/1/2 92/1/2 96/1/2
f 93/1/2 94/1/2 97/1/2
f 97/1/2 94/1/2 98/1/2
f 99/1/2 100/1/2 101/1/2
f 101/1/2 100/1/2 102/1/2
f 103/2/2 104/2/2 107/2/2
f 107/2/2 104/2/2 108/2/2
f 105/2/2 106/2/2 109/2/2
f 109/2/2 106/2/2 110/2/2
f 111/2/2 112/2/2 113/2/2
f 113/2/2 112/2/2 114/2/2
f 115/4/2 116/4/2 117/4/2
f 117/4/2 116/4/2 118/4/2
f 117/3/2 118/3/2 119/3/2
f 119/3/2 118/3/2 120/3/2
f 124/3/3 123/3/3 122/3/3
f 125/3/3 123/3/3 124/3/3
f 126/4/3 122/4/3 121/4/3
f 127/3/3 124/3/3 122/3/3
f 127/4/3 122/4/3 126/4/3
f 128/3/3 124/3/3 127/3/3
f 133/3/3 130/3/3 129/3/3
f 134/3/3 130/3/3 133/3/3
f 135/2/3 132/2/3 131/2/3
f 136/2/3 132/2/3 135/2/3
f 139/1/3 138/1/3 137/1/3
f 140/1/3 138/1/3 139/1/3
f 143/2/3 142/2/3 141/2/3
f 144/2/3 142/2/3 143/2/3
f 147/1/3 146/1/3 145/1/3
f 148/1/3 146/1/3 147/1/3
f 151/1/3 150/1/3 149/1/3
f 152/1/3 150/1/3 151/1/3
f 153/1/4 154/1/4 155/1/4
f 155/1/4 154/1/4 156/1/4
f 157/1/4 158/1/4 159/1/4
f 159/1/4 158/1/4 160/1/4
f 161/1/4 162/1/4 163/1/4
f 163/1/4 162/1/4 164/1/4
f 165/2/4 166/2/4 167/2/4
f 167/2/4 166/2/4 168/2/4
f 169/3/4 170/3/4 173/3/4
f 173/3/4 170/3/4 174/3/4
f 171/2/4 172/2/4 175/2/4
f 175/2/4 172/2/4 176/2/4
f 178/3/4 179/3/4 180/3/4
f 180/3/4 179/3/4 181/3/4
f 177/4/4 178/4/4 182/4/4
f 178/3/4 180/3/4 183/3/4
f 182/4/4 178/4/4 183/4/4
f 183/3/4 180/3/4 184/3/4
f 187/4/5 186/4/5 185/4/5
f 188/4/5 186/4/5 187/4/5
f 189/4/5 187/4/5 185/4/5
f 189/3/5 188/3/5 187/3/5
f 190/4/5 186/4/5 188/4/5
f 190/3/5 188/3/5 189/3/5
f 191/4/5 189/4/5 185/4/5
f 191/4/5 190/4/5 189/4/5
f 192/4/5 186/4/5 190/4/5
f 192/4/5 190/4/5 191/4/5
f 193/3/6 194/3/6 195/3/6
f 195/3/6 194/3/6 196/3/6
f 196/3/6 194/3/6 197/3/6
f 197/3/6 194/3/6 198/3/6
f 198/3/6 194/3/6 200/3/6
f 199/3/6 200/3/6 202/3/6
f 201/3/6 202/3/6 203/3/6
f 200/3/6 194/3/6 204/3/6
f 203/3/6 202/3/6 204/3/6
f 202/3/6 200/3/6 204/3/6
f 205/2/6 206/2/6 207/2/6
f 207/2/6 206/2/6 208/2/6
f 208/2/6 206/2/6 209/2/6
f 209/2/6 206/2/6 210/2/6
f 207/2/6 208/2/6 212/2/6
f 212/2/6 208/2/6 213/2/6
f 210/2/6 211/2/6 214/2/6
f 209/2/6 210/2/6 214/2/6
f 214/2/6 211/2/6 215/2/6
f 215/2/6 211/2/6 219/2/6
f 216/2/6 217/2/6 220/2/6
f 220/2/6 217/2/6 221/2/6
f 218/2/6 219/2/6 222/2/6
f 219/2/6 211/2/6 223/2/6
f 222/2/6 219/2/6 223/2/6
f 223/2/6 211/2/6 224/2/6
f 220/2/6 221/2/6 225/2/6
f 221/2/6 222/2/6 225/2/6
f 222/2/6 223/2/6 225/2/6
f 225/2/6 223/2/6 226/2/6
f 227/1/6 228/1/6 230/1/6
f 230/1/6 228/1/6 231/1/6
f 229/1/6 230/1/6 233/1/6
f 231/1/6 232/1/6 233/1/6
f 230/1/6 231/1/6 233/1/6
f 233/1/6 232/1/6 234/1/6
f 234/1/6 232/1/6 235/1/6
f 235/1/6 232/1/6 236/1/6
f 236/1/6 232/1/6 237/1/6
f 237/1/6 232/1/6 238/1/6
f 236/1/6 237/1/6 239/1/6
f 239/1/6 237/1/6 240/1/6
f 241/3/6 242/3/6 243/3/6
f 243/3/6 242/3/6 244/3/6
f 245/3/6 246/3/6 247/3/6
f 247/3/6 246/3/6 248/3/6
f 249/3/6 250/3/6 251/3/6
f 251/3/6 250/3/6 252/3/6
