# MagicaVoxel @ Ephtracy

# material
mtllib desk.mtl
usemtl palette

# normals
vn -1 0 0
vn 1 0 0
vn 0 0 1
vn 0 0 -1
vn 0 -1 0
vn 0 1 0

# texcoords
vt 0.107422 0.5
vt 0.111328 0.5

# verts
v -10 0 4
v -10 0 -4
v -10 8 4
v -10 8 -4
v -4 1 4
v -4 1 -4
v -4 6 4
v -4 6 -4
v 5 0 4
v 5 0 -4
v 5 6 4
v 5 6 -4
v -9 1 4
v -9 1 -4
v -9 6 4
v -9 6 3
v -9 6 -3
v -9 6 -4
v -3 0 4
v -3 0 -4
v -3 6 4
v -3 6 -4
v 7 0 4
v 7 0 -4
v 7 8 4
v 7 8 -4
v -10 0 4
v -10 8 4
v -9 1 4
v -9 6 4
v -4 1 4
v -4 6 4
v -3 0 4
v -3 6 4
v 5 0 4
v 5 6 4
v 7 0 4
v 7 8 4
v -10 0 -4
v -10 8 -4
v -9 1 -4
v -9 6 -4
v -4 1 -4
v -4 6 -4
v -3 0 -4
v -3 6 -4
v 5 0 -4
v 5 6 -4
v 7 0 -4
v 7 8 -4
v -10 0 4
v -3 0 4
v 5 0 4
v 7 0 4
v -10 0 -4
v -3 0 -4
v 5 0 -4
v 7 0 -4
v -9 6 4
v -4 6 4
v -3 6 4
v 5 6 4
v -9 6 3
v -8 6 3
v -9 6 -3
v -8 6 -3
v -9 6 -4
v -4 6 -4
v -3 6 -4
v 5 6 -4
v -9 1 4
v -4 1 4
v -9 1 -4
v -4 1 -4
v -10 8 4
v 7 8 4
v -9 8 3
v 6 8 3
v -9 8 -3
v 6 8 -3
v -10 8 -4
v 7 8 -4

# faces
f 3/1/1 2/1/1 1/1/1
f 4/1/1 2/1/1 3/1/1
f 7/1/1 6/1/1 5/1/1
f 8/1/1 6/1/1 7/1/1
f 11/1/1 10/1/1 9/1/1
f 12/1/1 10/1/1 11/1/1
f 13/1/2 14/1/2 15/1/2
f 15/1/2 14/1/2 16/1/2
f 16/1/2 14/1/2 17/1/2
f 17/1/2 14/1/2 18/1/2
f 19/1/2 20/1/2 21/1/2
f 21/1/2 20/1/2 22/1/2
f 23/1/2 24/1/2 25/1/2
f 25/1/2 24/1/2 26/1/2
f 29/1/3 28/1/3 27/1/3
f 30/1/3 28/1/3 29/1/3
f 31/1/3 29/1/3 27/1/3
f 32/1/3 28/1/3 30/1/3
f 33/1/3 31/1/3 27/1/3
f 33/1/3 32/1/3 31/1/3
f 34/1/3 28/1/3 32/1/3
f 34/1/3 32/1/3 33/1/3
f 36/1/3 28/1/3 34/1/3
f 37/1/3 36/1/3 35/1/3
f 38/1/3 28/1/3 36/1/3
f 38/1/3 36/1/3 37/1/3
f 39/1/4 40/1/4 41/1/4
f 41/1/4 40/1/4 42/1/4
f 39/1/4 41/1/4 43/1/4
f 42/1/4 40/1/4 44/1/4
f 39/1/4 43/1/4 45/1/4
f 43/1/4 44/1/4 45/1/4
f 44/1/4 40/1/4 46/1/4
f 45/1/4 44/1/4 46/1/4
f 46/1/4 40/1/4 48/1/4
f 47/1/4 48/1/4 49/1/4
f 48/1/4 40/1/4 50/1/4
f 49/1/4 48/1/4 50/1/4
f 55/1/5 52/1/5 51/1/5
f 56/1/5 52/1/5 55/1/5
f 57/1/5 54/1/5 53/1/5
f 58/1/5 54/1/5 57/1/5
f 63/1/5 60/1/5 59/1/5
f 64/1/5 60/1/5 63/1/5
f 65/2/5 64/2/5 63/2/5
f 66/1/5 60/1/5 64/1/5
f 66/2/5 64/2/5 65/2/5
f 67/1/5 66/1/5 65/1/5
f 68/1/5 60/1/5 66/1/5
f 68/1/5 66/1/5 67/1/5
f 69/1/5 62/1/5 61/1/5
f 70/1/5 62/1/5 69/1/5
f 71/1/6 72/1/6 73/1/6
f 73/1/6 72/1/6 74/1/6
f 75/1/6 76/1/6 77/1/6
f 77/1/6 76/1/6 78/1/6
f 75/1/6 77/1/6 79/1/6
f 77/2/6 78/2/6 79/2/6
f 78/1/6 76/1/6 80/1/6
f 79/2/6 78/2/6 80/2/6
f 75/1/6 79/1/6 81/1/6
f 79/1/6 80/1/6 81/1/6
f 80/1/6 76/1/6 82/1/6
f 81/1/6 80/1/6 82/1/6
