# MagicaVoxel @ Ephtracy

# material
mtllib door-outside.mtl
usemtl palette

# normals
vn -1 0 0
vn 1 0 0
vn 0 0 1
vn 0 0 -1
vn 0 -1 0
vn 0 1 0

# texcoords
vt 0.111328 0.5
vt 0.115234 0.5

# verts
v -1.5 4 2.5
v -1.5 4 1.5
v -1.5 5 2.5
v -1.5 5 1.5
v -0.5 0 2.5
v -0.5 0 -2.5
v -0.5 4 2.5
v -0.5 4 1.5
v -0.5 5 2.5
v -0.5 5 1.5
v -0.5 5 -1.5
v -0.5 8 1.5
v -0.5 8 -1.5
v -0.5 9 2.5
v -0.5 9 -2.5
v 0.5 0 2.5
v 0.5 0 -2.5
v 0.5 4 2.5
v 0.5 4 1.5
v 0.5 5 2.5
v 0.5 5 1.5
v 0.5 5 -1.5
v 0.5 8 1.5
v 0.5 8 -1.5
v 0.5 9 2.5
v 0.5 9 -2.5
v 1.5 4 2.5
v 1.5 4 1.5
v 1.5 5 2.5
v 1.5 5 1.5
v -1.5 4 2.5
v -1.5 5 2.5
v -0.5 0 2.5
v -0.5 4 2.5
v -0.5 5 2.5
v -0.5 9 2.5
v 0.5 0 2.5
v 0.5 4 2.5
v 0.5 5 2.5
v 0.5 9 2.5
v 1.5 4 2.5
v 1.5 5 2.5
v -0.5 5 -1.5
v -0.5 8 -1.5
v 0.5 5 -1.5
v 0.5 8 -1.5
v -1.5 4 1.5
v -1.5 5 1.5
v -0.5 4 1.5
v -0.5 5 1.5
v -0.5 8 1.5
v 0.5 4 1.5
v 0.5 5 1.5
v 0.5 8 1.5
v 1.5 4 1.5
v 1.5 5 1.5
v -0.5 0 -2.5
v -0.5 9 -2.5
v 0.5 0 -2.5
v 0.5 9 -2.5
v -0.5 0 2.5
v 0.5 0 2.5
v -0.5 0 -2.5
v 0.5 0 -2.5
v -1.5 4 2.5
v -0.5 4 2.5
v 0.5 4 2.5
v 1.5 4 2.5
v -1.5 4 1.5
v -0.5 4 1.5
v 0.5 4 1.5
v 1.5 4 1.5
v -0.5 8 1.5
v 0.5 8 1.5
v -0.5 8 -1.5
v 0.5 8 -1.5
v -1.5 5 2.5
v -0.5 5 2.5
v 0.5 5 2.5
v 1.5 5 2.5
v -1.5 5 1.5
v -0.5 5 1.5
v 0.5 5 1.5
v 1.5 5 1.5
v -0.5 5 -1.5
v 0.5 5 -1.5
v -0.5 9 2.5
v 0.5 9 2.5
v -0.5 9 -2.5
v 0.5 9 -2.5

# faces
f 3/2/1 2/2/1 1/2/1
f 4/2/1 2/2/1 3/2/1
f 7/1/1 6/1/1 5/1/1
f 8/1/1 6/1/1 7/1/1
f 10/1/1 6/1/1 8/1/1
f 11/1/1 6/1/1 10/1/1
f 12/1/1 10/1/1 9/1/1
f 13/1/1 6/1/1 11/1/1
f 14/1/1 12/1/1 9/1/1
f 14/1/1 13/1/1 12/1/1
f 15/1/1 6/1/1 13/1/1
f 15/1/1 13/1/1 14/1/1
f 16/1/2 17/1/2 18/1/2
f 18/1/2 17/1/2 19/1/2
f 19/1/2 17/1/2 21/1/2
f 21/1/2 17/1/2 22/1/2
f 20/1/2 21/1/2 23/1/2
f 22/1/2 17/1/2 24/1/2
f 20/1/2 23/1/2 25/1/2
f 23/1/2 24/1/2 25/1/2
f 24/1/2 17/1/2 26/1/2
f 25/1/2 24/1/2 26/1/2
f 27/2/2 28/2/2 29/2/2
f 29/2/2 28/2/2 30/2/2
f 34/2/3 32/2/3 31/2/3
f 35/2/3 32/2/3 34/2/3
f 37/1/3 34/1/3 33/1/3
f 37/1/3 36/1/3 35/1/3
f 37/1/3 35/1/3 34/1/3
f 38/1/3 36/1/3 37/1/3
f 39/1/3 36/1/3 38/1/3
f 40/1/3 36/1/3 39/1/3
f 41/2/3 39/2/3 38/2/3
f 42/2/3 39/2/3 41/2/3
f 45/1/3 44/1/3 43/1/3
f 46/1/3 44/1/3 45/1/3
f 47/2/4 48/2/4 49/2/4
f 49/2/4 48/2/4 50/2/4
f 50/1/4 51/1/4 53/1/4
f 53/1/4 51/1/4 54/1/4
f 52/2/4 53/2/4 55/2/4
f 55/2/4 53/2/4 56/2/4
f 57/1/4 58/1/4 59/1/4
f 59/1/4 58/1/4 60/1/4
f 63/1/5 62/1/5 61/1/5
f 64/1/5 62/1/5 63/1/5
f 69/2/5 66/2/5 65/2/5
f 70/2/5 66/2/5 69/2/5
f 71/2/5 68/2/5 67/2/5
f 72/2/5 68/2/5 71/2/5
f 75/1/5 74/1/5 73/1/5
f 76/1/5 74/1/5 75/1/5
f 77/2/6 78/2/6 81/2/6
f 81/2/6 78/2/6 82/2/6
f 79/2/6 80/2/6 83/2/6
f 83/2/6 80/2/6 84/2/6
f 82/1/6 83/1/6 85/1/6
f 85/1/6 83/1/6 86/1/6
f 87/1/6 88/1/6 89/1/6
f 89/1/6 88/1/6 90/1/6
