# MagicaVoxel @ Ephtracy

# material
mtllib hand_bones.mtl
usemtl palette

# normals
vn -1 0 0
vn 1 0 0
vn 0 0 1
vn 0 0 -1
vn 0 -1 0
vn 0 1 0

# texcoords
vt 0.0527344 0.5
vt 0.0566406 0.5

# verts
v -2 0 1
v -2 0 -6
v -2 11 -1
v -2 11 -4
v -2 12 1
v -2 12 -1
v -2 12 -4
v -2 12 -6
v -1 0 2
v -1 0 1
v -1 0 -6
v -1 0 -7
v -1 12 3
v -1 12 2
v -1 12 1
v -1 12 -1
v -1 12 -4
v -1 12 -6
v -1 12 -7
v -1 12 -8
v -1 13 2
v -1 13 -1
v -1 13 -4
v -1 13 -7
v -1 14 4
v -1 14 3
v -1 15 4
v -1 15 3
v -1 16 6
v -1 16 4
v -1 16 3
v -1 17 5
v -1 17 4
v -1 18 8
v -1 18 6
v -1 18 5
v -1 18 4
v -1 18 2
v -1 18 1
v -1 18 -0
v -1 18 -2
v -1 18 -3
v -1 18 -4
v -1 18 -5
v -1 18 -8
v -1 19 7
v -1 19 6
v -1 19 -1
v -1 19 -2
v -1 19 -6
v -1 19 -7
v -1 19 -8
v -1 20 8
v -1 20 7
v -1 20 6
v -1 20 3
v -1 20 2
v -1 20 1
v -1 20 -0
v -1 20 -1
v -1 20 -2
v -1 20 -3
v -1 20 -4
v -1 20 -5
v -1 20 -6
v -1 20 -7
v -1 20 -8
v -1 21 3
v -1 21 2
v -1 21 1
v -1 21 -0
v -1 21 -1
v -1 21 -2
v -1 21 -3
v -1 21 -4
v -1 21 -5
v -1 21 -6
v -1 21 -7
v -1 21 -8
v -1 22 3
v -1 22 2
v -1 22 1
v -1 23 3
v -1 23 2
v -1 23 1
v -1 23 -0
v -1 23 -1
v -1 23 -2
v -1 23 -3
v -1 23 -4
v -1 23 -5
v -1 23 -6
v -1 23 -7
v -1 23 -8
v -1 24 3
v -1 24 2
v -1 24 1
v -1 24 -0
v -1 24 -1
v -1 24 -2
v -1 24 -3
v -1 24 -4
v -1 24 -5
v -1 25 3
v -1 25 2
v -1 25 1
v -1 26 -0
v -1 26 -1
v -1 26 -2
v -1 26 -3
v -1 26 -4
v -1 26 -5
v -1 27 3
v -1 27 2
v -1 27 1
v -1 27 -0
v -1 27 -1
v -1 27 -2
v -1 29 -0
v -1 29 -1
v -1 29 -2
v 1 0 2
v 1 0 1
v 1 0 -6
v 1 0 -7
v 1 12 3
v 1 12 2
v 1 12 1
v 1 12 -1
v 1 12 -4
v 1 12 -6
v 1 12 -7
v 1 12 -8
v 1 13 3
v 1 13 2
v 1 13 -0
v 1 13 -1
v 1 13 -4
v 1 13 -5
v 1 13 -6
v 1 13 -7
v 1 14 4
v 1 14 3
v 1 14 -0
v 1 14 -1
v 1 14 -4
v 1 14 -5
v 1 14 -6
v 1 14 -7
v 1 15 4
v 1 15 3
v 1 16 6
v 1 16 4
v 1 16 3
v 1 17 5
v 1 17 4
v 1 17 -6
v 1 17 -7
v 1 18 8
v 1 18 6
v 1 18 5
v 1 18 4
v 1 18 2
v 1 18 1
v 1 18 -0
v 1 18 -1
v 1 18 -2
v 1 18 -3
v 1 18 -4
v 1 18 -5
v 1 18 -6
v 1 18 -8
v 1 19 7
v 1 19 6
v 1 19 -6
v 1 19 -7
v 1 19 -8
v 1 20 8
v 1 20 7
v 1 20 6
v 1 20 3
v 1 20 2
v 1 20 1
v 1 20 -0
v 1 20 -1
v 1 20 -2
v 1 20 -3
v 1 20 -4
v 1 20 -5
v 1 20 -6
v 1 20 -7
v 1 20 -8
v 1 21 3
v 1 21 2
v 1 21 1
v 1 21 -0
v 1 21 -1
v 1 21 -2
v 1 21 -3
v 1 21 -4
v 1 21 -5
v 1 21 -6
v 1 21 -7
v 1 21 -8
v 1 22 3
v 1 22 2
v 1 22 1
v 1 23 3
v 1 23 2
v 1 23 1
v 1 23 -0
v 1 23 -1
v 1 23 -2
v 1 23 -3
v 1 23 -4
v 1 23 -5
v 1 23 -6
v 1 23 -7
v 1 23 -8
v 1 24 3
v 1 24 2
v 1 24 1
v 1 24 -0
v 1 24 -1
v 1 24 -2
v 1 24 -3
v 1 24 -4
v 1 24 -5
v 1 25 3
v 1 25 2
v 1 25 1
v 1 26 -0
v 1 26 -1
v 1 26 -2
v 1 26 -3
v 1 26 -4
v 1 26 -5
v 1 27 3
v 1 27 2
v 1 27 1
v 1 27 -0
v 1 27 -1
v 1 27 -2
v 1 29 -0
v 1 29 -1
v 1 29 -2
v 2 0 1
v 2 0 -5
v 2 0 -6
v 2 11 -1
v 2 11 -4
v 2 12 1
v 2 12 -1
v 2 12 -4
v 2 12 -5
v 2 12 -6
v -1 18 8
v -1 20 8
v 1 18 8
v 1 20 8
v -1 16 6
v -1 18 6
v 1 16 6
v 1 18 6
v -1 14 4
v -1 15 4
v -1 16 4
v 1 14 4
v 1 15 4
v 1 16 4
v -1 12 3
v -1 14 3
v -1 16 3
v -1 20 3
v -1 21 3
v -1 22 3
v -1 23 3
v -1 24 3
v -1 25 3
v -1 27 3
v 0 12 3
v 0 13 3
v 1 12 3
v 1 13 3
v 1 14 3
v 1 16 3
v 1 20 3
v 1 21 3
v 1 22 3
v 1 23 3
v 1 24 3
v 1 25 3
v 1 27 3
v -1 0 2
v -1 12 2
v 0 12 2
v 1 0 2
v 1 12 2
v -2 0 1
v -2 12 1
v -1 0 1
v -1 12 1
v 1 0 1
v 1 12 1
v 2 0 1
v 2 12 1
v -1 18 -0
v -1 20 -0
v -1 21 -0
v -1 23 -0
v -1 24 -0
v -1 26 -0
v -1 27 -0
v -1 29 -0
v 1 18 -0
v 1 20 -0
v 1 21 -0
v 1 23 -0
v 1 24 -0
v 1 26 -0
v 1 27 -0
v 1 29 -0
v -1 12 -1
v -1 13 -1
v 0 12 -1
v 0 13 -1
v 1 12 -1
v 1 13 -1
v -1 18 -3
v -1 20 -3
v -1 21 -3
v -1 23 -3
v -1 24 -3
v -1 26 -3
v 1 18 -3
v 1 20 -3
v 1 21 -3
v 1 23 -3
v 1 24 -3
v 1 26 -3
v -2 11 -4
v -2 12 -4
v -1 12 -4
v 0 12 -4
v 1 12 -4
v 2 11 -4
v 2 12 -4
v -1 19 -6
v -1 20 -6
v -1 21 -6
v -1 23 -6
v 1 19 -6
v 1 20 -6
v 1 21 -6
v 1 23 -6
v -1 12 -7
v -1 13 -7
v 0 12 -7
v 0 13 -7
v 1 12 -7
v 1 13 -7
v -1 18 6
v -1 19 6
v -1 20 6
v 1 18 6
v 1 19 6
v 1 20 6
v -1 16 4
v -1 17 4
v -1 18 4
v 1 16 4
v 1 17 4
v 1 18 4
v -1 12 2
v -1 13 2
v 0 12 2
v 0 13 2
v 1 12 2
v 1 13 2
v -1 18 1
v -1 20 1
v -1 21 1
v -1 22 1
v -1 23 1
v -1 24 1
v -1 25 1
v -1 27 1
v 1 18 1
v 1 20 1
v 1 21 1
v 1 22 1
v 1 23 1
v 1 24 1
v 1 25 1
v 1 27 1
v -2 11 -1
v -2 12 -1
v -1 12 -1
v 0 12 -1
v 1 12 -1
v 2 11 -1
v 2 12 -1
v -1 18 -2
v -1 19 -2
v -1 20 -2
v -1 21 -2
v -1 23 -2
v -1 24 -2
v -1 26 -2
v -1 27 -2
v -1 29 -2
v 0 18 -2
v 0 19 -2
v 1 18 -2
v 1 20 -2
v 1 21 -2
v 1 23 -2
v 1 24 -2
v 1 26 -2
v 1 27 -2
v 1 29 -2
v -1 12 -4
v -1 13 -4
v 0 12 -4
v 0 13 -4
v 1 12 -4
v 1 13 -4
v -1 18 -5
v -1 20 -5
v -1 21 -5
v -1 23 -5
v -1 24 -5
v -1 26 -5
v 1 18 -5
v 1 20 -5
v 1 21 -5
v 1 23 -5
v 1 24 -5
v 1 26 -5
v -2 0 -6
v -2 12 -6
v -1 0 -6
v -1 12 -6
v 1 0 -6
v 1 12 -6
v 2 0 -6
v 2 12 -6
v -1 0 -7
v -1 12 -7
v 0 0 -7
v 0 12 -7
v 1 0 -7
v 1 12 -7
v -1 12 -8
v -1 18 -8
v -1 19 -8
v -1 20 -8
v -1 21 -8
v -1 23 -8
v 0 12 -8
v 0 18 -8
v 1 12 -8
v 1 18 -8
v 1 19 -8
v 1 20 -8
v 1 21 -8
v 1 23 -8
v -1 0 2
v 1 0 2
v -2 0 1
v -1 0 1
v 1 0 1
v 2 0 1
v 1 0 -5
v 2 0 -5
v -2 0 -6
v -1 0 -6
v 0 0 -6
v 1 0 -6
v 2 0 -6
v -1 0 -7
v 0 0 -7
v 1 0 -7
v -1 12 3
v 0 12 3
v 1 12 3
v -1 12 2
v 0 12 2
v 1 12 2
v -1 12 -1
v 0 12 -1
v 1 12 -1
v -1 12 -4
v 0 12 -4
v 1 12 -4
v -1 12 -7
v 0 12 -7
v 1 12 -7
v -1 12 -8
v 0 12 -8
v 1 12 -8
v -1 13 2
v 0 13 2
v 1 13 2
v 0 13 -0
v 1 13 -0
v -1 13 -1
v 0 13 -1
v 1 13 -1
v -1 13 -4
v 0 13 -4
v 1 13 -4
v 0 13 -5
v 1 13 -5
v 0 13 -6
v 1 13 -6
v -1 13 -7
v 0 13 -7
v 1 13 -7
v -1 14 4
v 1 14 4
v -1 14 3
v 1 14 3
v -1 16 6
v 1 16 6
v -1 16 4
v 1 16 4
v -1 18 8
v 1 18 8
v -1 18 6
v 1 18 6
v -1 19 -6
v 1 19 -6
v -1 19 -7
v 1 19 -7
v -1 19 -8
v 1 19 -8
v -1 21 3
v 1 21 3
v -1 21 2
v 1 21 2
v -1 21 1
v 1 21 1
v -1 21 -0
v 1 21 -0
v -1 21 -1
v 1 21 -1
v -1 21 -2
v 1 21 -2
v -1 21 -3
v 1 21 -3
v -1 21 -4
v 1 21 -4
v -1 21 -5
v 1 21 -5
v -1 21 -6
v 1 21 -6
v -1 21 -7
v 1 21 -7
v -1 21 -8
v 1 21 -8
v -1 23 3
v 1 23 3
v -1 23 2
v 1 23 2
v -1 23 1
v 1 23 1
v -1 24 -0
v 1 24 -0
v -1 24 -1
v 1 24 -1
v -1 24 -2
v 1 24 -2
v -1 24 -3
v 1 24 -3
v -1 24 -4
v 1 24 -4
v -1 24 -5
v 1 24 -5
v -1 25 3
v 1 25 3
v -1 25 2
v 1 25 2
v -1 25 1
v 1 25 1
v -1 27 -0
v 1 27 -0
v -1 27 -1
v 1 27 -1
v -1 27 -2
v 1 27 -2
v -2 11 -1
v 2 11 -1
v -2 11 -4
v 2 11 -4
v -1 12 2
v 0 12 2
v 1 12 2
v -2 12 1
v -1 12 1
v 1 12 1
v 2 12 1
v -2 12 -1
v -1 12 -1
v 0 12 -1
v 1 12 -1
v 2 12 -1
v -2 12 -4
v -1 12 -4
v 0 12 -4
v 1 12 -4
v 2 12 -4
v 1 12 -5
v 2 12 -5
v -2 12 -6
v -1 12 -6
v 0 12 -6
v 1 12 -6
v 2 12 -6
v -1 12 -7
v 0 12 -7
v 1 12 -7
v -1 16 4
v 1 16 4
v -1 16 3
v 1 16 3
v -1 18 6
v 1 18 6
v -1 18 5
v 1 18 5
v -1 18 4
v 1 18 4
v -1 18 1
v 1 18 1
v -1 18 -0
v 1 18 -0
v -1 18 -2
v 0 18 -2
v 1 18 -2
v -1 18 -3
v 1 18 -3
v -1 18 -5
v 1 18 -5
v 0 18 -6
v 1 18 -6
v -1 18 -8
v 0 18 -8
v 1 18 -8
v -1 20 8
v 1 20 8
v -1 20 7
v 1 20 7
v -1 20 6
v 1 20 6
v -1 20 3
v 1 20 3
v -1 20 2
v 1 20 2
v -1 20 1
v 1 20 1
v -1 20 -0
v 1 20 -0
v -1 20 -1
v 1 20 -1
v -1 20 -2
v 1 20 -2
v -1 20 -3
v 1 20 -3
v -1 20 -4
v 1 20 -4
v -1 20 -5
v 1 20 -5
v -1 20 -6
v 1 20 -6
v -1 20 -7
v 1 20 -7
v -1 20 -8
v 1 20 -8
v -1 22 3
v 1 22 3
v -1 22 2
v 1 22 2
v -1 22 1
v 1 22 1
v -1 23 -0
v 1 23 -0
v -1 23 -1
v 1 23 -1
v -1 23 -2
v 1 23 -2
v -1 23 -3
v 1 23 -3
v -1 23 -4
v 1 23 -4
v -1 23 -5
v 1 23 -5
v -1 23 -6
v 1 23 -6
v -1 23 -7
v 1 23 -7
v -1 23 -8
v 1 23 -8
v -1 24 3
v 1 24 3
v -1 24 2
v 1 24 2
v -1 24 1
v 1 24 1
v -1 26 -0
v 1 26 -0
v -1 26 -1
v 1 26 -1
v -1 26 -2
v 1 26 -2
v -1 26 -3
v 1 26 -3
v -1 26 -4
v 1 26 -4
v -1 26 -5
v 1 26 -5
v -1 27 3
v 1 27 3
v -1 27 2
v 1 27 2
v -1 27 1
v 1 27 1
v -1 29 -0
v 1 29 -0
v -1 29 -1
v 1 29 -1
v -1 29 -2
v 1 29 -2

# faces
f 3/1/1 2/1/1 1/1/1
f 4/1/1 2/1/1 3/1/1
f 5/1/1 3/1/1 1/1/1
f 6/1/1 3/1/1 5/1/1
f 7/1/1 2/1/1 4/1/1
f 8/1/1 2/1/1 7/1/1
f 14/1/1 10/1/1 9/1/1
f 15/1/1 10/1/1 14/1/1
f 18/1/1 12/1/1 11/1/1
f 19/1/1 12/1/1 18/1/1
f 21/1/1 14/1/1 13/1/1
f 22/1/1 17/1/1 16/1/1
f 23/1/1 17/1/1 22/1/1
f 24/1/1 20/1/1 19/1/1
f 26/1/1 21/1/1 13/1/1
f 26/1/1 24/1/1 23/1/1
f 26/1/1 23/1/1 22/1/1
f 26/1/1 22/1/1 21/1/1
f 27/1/1 26/1/1 25/1/1
f 28/1/1 24/1/1 26/1/1
f 28/1/1 26/1/1 27/1/1
f 30/2/1 28/2/1 27/2/1
f 31/1/1 24/1/1 28/1/1
f 31/2/1 28/2/1 30/2/1
f 32/1/1 30/1/1 29/1/1
f 33/1/1 30/1/1 32/1/1
f 35/1/1 32/1/1 29/1/1
f 36/2/1 33/2/1 32/2/1
f 36/1/1 32/1/1 35/1/1
f 37/2/1 33/2/1 36/2/1
f 38/1/1 24/1/1 31/1/1
f 39/1/1 24/1/1 38/1/1
f 40/1/1 24/1/1 39/1/1
f 41/1/1 24/1/1 40/1/1
f 42/1/1 24/1/1 41/1/1
f 43/1/1 24/1/1 42/1/1
f 44/1/1 24/1/1 43/1/1
f 45/1/1 20/1/1 24/1/1
f 45/1/1 24/1/1 44/1/1
f 46/1/1 35/1/1 34/1/1
f 47/1/1 35/1/1 46/1/1
f 48/1/1 41/1/1 40/1/1
f 49/1/1 41/1/1 48/1/1
f 53/1/1 46/1/1 34/1/1
f 54/2/1 47/2/1 46/2/1
f 54/1/1 46/1/1 53/1/1
f 55/2/1 47/2/1 54/2/1
f 56/1/1 38/1/1 31/1/1
f 57/2/1 39/2/1 38/2/1
f 57/1/1 38/1/1 56/1/1
f 58/2/1 39/2/1 57/2/1
f 59/1/1 48/1/1 40/1/1
f 60/2/1 49/2/1 48/2/1
f 60/1/1 48/1/1 59/1/1
f 61/2/1 49/2/1 60/2/1
f 62/1/1 43/1/1 42/1/1
f 63/2/1 44/2/1 43/2/1
f 63/1/1 43/1/1 62/1/1
f 64/2/1 44/2/1 63/2/1
f 65/1/1 51/1/1 50/1/1
f 66/2/1 52/2/1 51/2/1
f 66/1/1 51/1/1 65/1/1
f 67/2/1 52/2/1 66/2/1
f 80/1/1 69/1/1 68/1/1
f 81/2/1 70/2/1 69/2/1
f 81/1/1 69/1/1 80/1/1
f 82/2/1 70/2/1 81/2/1
f 86/1/1 72/1/1 71/1/1
f 87/2/1 73/2/1 72/2/1
f 87/1/1 72/1/1 86/1/1
f 88/2/1 73/2/1 87/2/1
f 89/1/1 75/1/1 74/1/1
f 90/2/1 76/2/1 75/2/1
f 90/1/1 75/1/1 89/1/1
f 91/2/1 76/2/1 90/2/1
f 92/1/1 78/1/1 77/1/1
f 93/2/1 79/2/1 78/2/1
f 93/1/1 78/1/1 92/1/1
f 94/2/1 79/2/1 93/2/1
f 95/1/1 84/1/1 83/1/1
f 96/2/1 85/2/1 84/2/1
f 96/1/1 84/1/1 95/1/1
f 97/2/1 85/2/1 96/2/1
f 107/1/1 99/1/1 98/1/1
f 108/2/1 100/2/1 99/2/1
f 108/1/1 99/1/1 107/1/1
f 109/2/1 100/2/1 108/2/1
f 110/1/1 102/1/1 101/1/1
f 111/2/1 103/2/1 102/2/1
f 111/1/1 102/1/1 110/1/1
f 112/2/1 103/2/1 111/2/1
f 113/1/1 105/1/1 104/1/1
f 114/2/1 106/2/1 105/2/1
f 114/1/1 105/1/1 113/1/1
f 115/2/1 106/2/1 114/2/1
f 119/1/1 117/1/1 116/1/1
f 120/2/1 118/2/1 117/2/1
f 120/1/1 117/1/1 119/1/1
f 121/2/1 118/2/1 120/2/1
f 122/1/2 123/1/2 127/1/2
f 127/1/2 123/1/2 128/1/2
f 124/2/2 125/2/2 131/2/2
f 131/2/2 125/2/2 132/2/2
f 126/2/2 127/2/2 134/2/2
f 134/2/2 127/2/2 135/2/2
f 129/2/2 130/2/2 137/2/2
f 137/2/2 130/2/2 138/2/2
f 132/2/2 133/2/2 141/2/2
f 135/1/2 136/1/2 143/1/2
f 134/1/2 135/1/2 143/1/2
f 136/2/2 137/2/2 144/2/2
f 143/1/2 136/1/2 144/1/2
f 137/1/2 138/1/2 145/1/2
f 144/2/2 137/2/2 145/2/2
f 138/2/2 139/2/2 146/2/2
f 145/1/2 138/1/2 146/1/2
f 139/1/2 140/1/2 147/1/2
f 146/2/2 139/2/2 147/2/2
f 140/2/2 141/2/2 148/2/2
f 147/1/2 140/1/2 148/1/2
f 141/2/2 133/2/2 149/2/2
f 148/2/2 141/2/2 149/2/2
f 146/1/2 147/1/2 150/1/2
f 145/1/2 146/1/2 150/1/2
f 148/1/2 149/1/2 150/1/2
f 147/1/2 148/1/2 150/1/2
f 142/1/2 143/1/2 150/1/2
f 144/1/2 145/1/2 150/1/2
f 143/1/2 144/1/2 150/1/2
f 150/1/2 149/1/2 151/1/2
f 150/2/2 151/2/2 153/2/2
f 151/1/2 149/1/2 154/1/2
f 153/2/2 151/2/2 154/2/2
f 152/1/2 153/1/2 155/1/2
f 155/1/2 153/1/2 156/1/2
f 154/1/2 149/1/2 157/1/2
f 149/2/2 133/2/2 158/2/2
f 157/1/2 149/1/2 158/1/2
f 152/1/2 155/1/2 160/1/2
f 155/2/2 156/2/2 161/2/2
f 160/1/2 155/1/2 161/1/2
f 161/2/2 156/2/2 162/2/2
f 154/1/2 157/1/2 163/1/2
f 163/1/2 157/1/2 164/1/2
f 164/1/2 157/1/2 165/1/2
f 165/1/2 157/1/2 166/1/2
f 166/1/2 157/1/2 167/1/2
f 167/1/2 157/1/2 168/1/2
f 168/1/2 157/1/2 169/1/2
f 169/1/2 157/1/2 170/1/2
f 157/2/2 158/2/2 171/2/2
f 170/1/2 157/1/2 171/1/2
f 158/2/2 133/2/2 172/2/2
f 171/2/2 158/2/2 172/2/2
f 159/1/2 160/1/2 173/1/2
f 173/1/2 160/1/2 174/1/2
f 159/1/2 173/1/2 178/1/2
f 173/2/2 174/2/2 179/2/2
f 178/1/2 173/1/2 179/1/2
f 179/2/2 174/2/2 180/2/2
f 154/1/2 163/1/2 181/1/2
f 163/2/2 164/2/2 182/2/2
f 181/1/2 163/1/2 182/1/2
f 182/2/2 164/2/2 183/2/2
f 165/1/2 166/1/2 184/1/2
f 166/2/2 167/2/2 185/2/2
f 184/1/2 166/1/2 185/1/2
f 185/2/2 167/2/2 186/2/2
f 168/1/2 169/1/2 187/1/2
f 169/2/2 170/2/2 188/2/2
f 187/1/2 169/1/2 188/1/2
f 188/2/2 170/2/2 189/2/2
f 175/1/2 176/1/2 190/1/2
f 176/2/2 177/2/2 191/2/2
f 190/1/2 176/1/2 191/1/2
f 191/2/2 177/2/2 192/2/2
f 193/1/2 194/1/2 205/1/2
f 194/2/2 195/2/2 206/2/2
f 205/1/2 194/1/2 206/1/2
f 206/2/2 195/2/2 207/2/2
f 196/1/2 197/1/2 211/1/2
f 197/2/2 198/2/2 212/2/2
f 211/1/2 197/1/2 212/1/2
f 212/2/2 198/2/2 213/2/2
f 199/1/2 200/1/2 214/1/2
f 200/2/2 201/2/2 215/2/2
f 214/1/2 200/1/2 215/1/2
f 215/2/2 201/2/2 216/2/2
f 202/1/2 203/1/2 217/1/2
f 203/2/2 204/2/2 218/2/2
f 217/1/2 203/1/2 218/1/2
f 218/2/2 204/2/2 219/2/2
f 208/1/2 209/1/2 220/1/2
f 209/2/2 210/2/2 221/2/2
f 220/1/2 209/1/2 221/1/2
f 221/2/2 210/2/2 222/2/2
f 223/1/2 224/1/2 232/1/2
f 224/2/2 225/2/2 233/2/2
f 232/1/2 224/1/2 233/1/2
f 233/2/2 225/2/2 234/2/2
f 226/1/2 227/1/2 235/1/2
f 227/2/2 228/2/2 236/2/2
f 235/1/2 227/1/2 236/1/2
f 236/2/2 228/2/2 237/2/2
f 229/1/2 230/1/2 238/1/2
f 230/2/2 231/2/2 239/2/2
f 238/1/2 230/1/2 239/1/2
f 239/2/2 231/2/2 240/2/2
f 241/1/2 242/1/2 244/1/2
f 242/2/2 243/2/2 245/2/2
f 244/1/2 242/1/2 245/1/2
f 245/2/2 243/2/2 246/2/2
f 247/1/2 248/1/2 250/1/2
f 250/1/2 248/1/2 251/1/2
f 247/1/2 250/1/2 252/1/2
f 252/1/2 250/1/2 253/1/2
f 251/1/2 248/1/2 254/1/2
f 248/2/2 249/2/2 255/2/2
f 254/1/2 248/1/2 255/1/2
f 255/2/2 249/2/2 256/2/2
f 259/1/3 258/1/3 257/1/3
f 260/1/3 258/1/3 259/1/3
f 263/1/3 262/1/3 261/1/3
f 264/1/3 262/1/3 263/1/3
f 268/1/3 266/1/3 265/1/3
f 269/2/3 267/2/3 266/2/3
f 269/1/3 266/1/3 268/1/3
f 270/2/3 267/2/3 269/2/3
f 281/1/3 272/1/3 271/1/3
f 282/1/3 272/1/3 281/1/3
f 283/2/3 282/2/3 281/2/3
f 284/1/3 272/1/3 282/1/3
f 284/2/3 282/2/3 283/2/3
f 285/1/3 272/1/3 284/1/3
f 286/1/3 274/1/3 273/1/3
f 287/1/3 274/1/3 286/1/3
f 288/1/3 276/1/3 275/1/3
f 289/1/3 276/1/3 288/1/3
f 290/1/3 278/1/3 277/1/3
f 291/1/3 278/1/3 290/1/3
f 292/1/3 280/1/3 279/1/3
f 293/1/3 280/1/3 292/1/3
f 296/1/3 295/1/3 294/1/3
f 297/1/3 296/1/3 294/1/3
f 298/1/3 296/1/3 297/1/3
f 301/1/3 300/1/3 299/1/3
f 302/1/3 300/1/3 301/1/3
f 305/1/3 304/1/3 303/1/3
f 306/1/3 304/1/3 305/1/3
f 315/1/3 308/1/3 307/1/3
f 316/1/3 308/1/3 315/1/3
f 317/1/3 310/1/3 309/1/3
f 318/1/3 310/1/3 317/1/3
f 319/1/3 312/1/3 311/1/3
f 320/1/3 312/1/3 319/1/3
f 321/1/3 314/1/3 313/1/3
f 322/1/3 314/1/3 321/1/3
f 325/1/3 324/1/3 323/1/3
f 326/1/3 324/1/3 325/1/3
f 327/2/3 326/2/3 325/2/3
f 328/2/3 326/2/3 327/2/3
f 335/1/3 330/1/3 329/1/3
f 336/1/3 330/1/3 335/1/3
f 337/1/3 332/1/3 331/1/3
f 338/1/3 332/1/3 337/1/3
f 339/1/3 334/1/3 333/1/3
f 340/1/3 334/1/3 339/1/3
f 343/1/3 342/1/3 341/1/3
f 344/1/3 343/1/3 341/1/3
f 345/1/3 344/1/3 341/1/3
f 346/1/3 345/1/3 341/1/3
f 347/1/3 345/1/3 346/1/3
f 352/1/3 349/1/3 348/1/3
f 353/1/3 349/1/3 352/1/3
f 354/1/3 351/1/3 350/1/3
f 355/1/3 351/1/3 354/1/3
f 358/1/3 357/1/3 356/1/3
f 359/1/3 357/1/3 358/1/3
f 360/2/3 359/2/3 358/2/3
f 361/2/3 359/2/3 360/2/3
f 362/1/4 363/1/4 365/1/4
f 363/2/4 364/2/4 366/2/4
f 365/1/4 363/1/4 366/1/4
f 366/2/4 364/2/4 367/2/4
f 368/1/4 369/1/4 371/1/4
f 369/2/4 370/2/4 372/2/4
f 371/1/4 369/1/4 372/1/4
f 372/2/4 370/2/4 373/2/4
f 374/1/4 375/1/4 376/1/4
f 376/1/4 375/1/4 377/1/4
f 376/2/4 377/2/4 378/2/4
f 378/2/4 377/2/4 379/2/4
f 380/2/4 381/2/4 388/2/4
f 388/2/4 381/2/4 389/2/4
f 382/2/4 383/2/4 390/2/4
f 390/2/4 383/2/4 391/2/4
f 384/2/4 385/2/4 392/2/4
f 392/2/4 385/2/4 393/2/4
f 386/2/4 387/2/4 394/2/4
f 394/2/4 387/2/4 395/2/4
f 396/1/4 397/1/4 398/1/4
f 396/1/4 398/1/4 399/1/4
f 396/1/4 399/1/4 400/1/4
f 396/1/4 400/1/4 401/1/4
f 401/1/4 400/1/4 402/1/4
f 403/1/4 404/1/4 412/1/4
f 404/2/4 405/2/4 413/2/4
f 412/1/4 404/1/4 413/1/4
f 412/2/4 413/2/4 414/2/4
f 413/2/4 405/2/4 415/2/4
f 414/2/4 413/2/4 415/2/4
f 406/2/4 407/2/4 416/2/4
f 416/2/4 407/2/4 417/2/4
f 408/2/4 409/2/4 418/2/4
f 418/2/4 409/2/4 419/2/4
f 410/2/4 411/2/4 420/2/4
f 420/2/4 411/2/4 421/2/4
f 422/1/4 423/1/4 424/1/4
f 424/1/4 423/1/4 425/1/4
f 424/2/4 425/2/4 426/2/4
f 426/2/4 425/2/4 427/2/4
f 428/2/4 429/2/4 434/2/4
f 434/2/4 429/2/4 435/2/4
f 430/2/4 431/2/4 436/2/4
f 436/2/4 431/2/4 437/2/4
f 432/2/4 433/2/4 438/2/4
f 438/2/4 433/2/4 439/2/4
f 440/1/4 441/1/4 442/1/4
f 442/1/4 441/1/4 443/1/4
f 444/2/4 445/2/4 446/2/4
f 446/2/4 445/2/4 447/2/4
f 448/1/4 449/1/4 450/1/4
f 450/1/4 449/1/4 451/1/4
f 450/2/4 451/2/4 452/2/4
f 452/2/4 451/2/4 453/2/4
f 454/1/4 455/1/4 460/1/4
f 460/1/4 455/1/4 461/1/4
f 460/2/4 461/2/4 462/2/4
f 462/2/4 461/2/4 463/2/4
f 456/2/4 457/2/4 464/2/4
f 464/2/4 457/2/4 465/2/4
f 458/2/4 459/2/4 466/2/4
f 466/2/4 459/2/4 467/2/4
f 471/1/5 469/1/5 468/1/5
f 472/1/5 469/1/5 471/1/5
f 474/1/5 471/1/5 470/1/5
f 474/1/5 473/1/5 472/1/5
f 474/1/5 472/1/5 471/1/5
f 475/1/5 473/1/5 474/1/5
f 476/1/5 474/1/5 470/1/5
f 477/1/5 474/1/5 476/1/5
f 478/1/5 474/1/5 477/1/5
f 479/2/5 475/2/5 474/2/5
f 479/1/5 474/1/5 478/1/5
f 480/2/5 475/2/5 479/2/5
f 481/1/5 478/1/5 477/1/5
f 482/2/5 479/2/5 478/2/5
f 482/1/5 478/1/5 481/1/5
f 483/2/5 479/2/5 482/2/5
f 487/1/5 485/1/5 484/1/5
f 488/2/5 486/2/5 485/2/5
f 488/1/5 485/1/5 487/1/5
f 489/2/5 486/2/5 488/2/5
f 493/1/5 491/1/5 490/1/5
f 494/2/5 492/2/5 491/2/5
f 494/1/5 491/1/5 493/1/5
f 495/2/5 492/2/5 494/2/5
f 499/1/5 497/1/5 496/1/5
f 500/2/5 498/2/5 497/2/5
f 500/1/5 497/1/5 499/1/5
f 501/2/5 498/2/5 500/2/5
f 505/1/5 503/1/5 502/1/5
f 505/1/5 504/1/5 503/1/5
f 506/1/5 504/1/5 505/1/5
f 507/1/5 505/1/5 502/1/5
f 508/2/5 506/2/5 505/2/5
f 508/1/5 505/1/5 507/1/5
f 509/2/5 506/2/5 508/2/5
f 513/1/5 511/1/5 510/1/5
f 513/2/5 512/2/5 511/2/5
f 514/2/5 512/2/5 513/2/5
f 515/1/5 513/1/5 510/1/5
f 515/1/5 514/1/5 513/1/5
f 516/1/5 514/1/5 515/1/5
f 517/1/5 515/1/5 510/1/5
f 518/2/5 516/2/5 515/2/5
f 518/1/5 515/1/5 517/1/5
f 519/2/5 516/2/5 518/2/5
f 522/1/5 521/1/5 520/1/5
f 523/1/5 521/1/5 522/1/5
f 526/1/5 525/1/5 524/1/5
f 527/1/5 525/1/5 526/1/5
f 530/1/5 529/1/5 528/1/5
f 531/1/5 529/1/5 530/1/5
f 534/1/5 533/1/5 532/1/5
f 535/1/5 533/1/5 534/1/5
f 536/2/5 535/2/5 534/2/5
f 537/2/5 535/2/5 536/2/5
f 540/1/5 539/1/5 538/1/5
f 541/1/5 539/1/5 540/1/5
f 542/2/5 541/2/5 540/2/5
f 543/2/5 541/2/5 542/2/5
f 546/1/5 545/1/5 544/1/5
f 547/1/5 545/1/5 546/1/5
f 548/2/5 547/2/5 546/2/5
f 549/2/5 547/2/5 548/2/5
f 552/1/5 551/1/5 550/1/5
f 553/1/5 551/1/5 552/1/5
f 554/2/5 553/2/5 552/2/5
f 555/2/5 553/2/5 554/2/5
f 558/1/5 557/1/5 556/1/5
f 559/1/5 557/1/5 558/1/5
f 560/2/5 559/2/5 558/2/5
f 561/2/5 559/2/5 560/2/5
f 564/1/5 563/1/5 562/1/5
f 565/1/5 563/1/5 564/1/5
f 566/2/5 565/2/5 564/2/5
f 567/2/5 565/2/5 566/2/5
f 570/1/5 569/1/5 568/1/5
f 571/1/5 569/1/5 570/1/5
f 572/2/5 571/2/5 570/2/5
f 573/2/5 571/2/5 572/2/5
f 576/1/5 575/1/5 574/1/5
f 577/1/5 575/1/5 576/1/5
f 578/2/5 577/2/5 576/2/5
f 579/2/5 577/2/5 578/2/5
f 582/1/5 581/1/5 580/1/5
f 583/1/5 581/1/5 582/1/5
f 584/2/5 583/2/5 582/2/5
f 585/2/5 583/2/5 584/2/5
f 588/1/5 587/1/5 586/1/5
f 589/1/5 587/1/5 588/1/5
f 590/2/5 589/2/5 588/2/5
f 591/2/5 589/2/5 590/2/5
f 592/1/6 593/1/6 594/1/6
f 594/1/6 593/1/6 595/1/6
f 596/1/6 597/1/6 600/1/6
f 597/1/6 598/1/6 600/1/6
f 600/1/6 598/1/6 601/1/6
f 599/1/6 600/1/6 603/1/6
f 601/1/6 602/1/6 603/1/6
f 600/1/6 601/1/6 603/1/6
f 603/1/6 602/1/6 604/1/6
f 604/1/6 602/1/6 605/1/6
f 605/1/6 602/1/6 606/1/6
f 606/1/6 602/1/6 607/1/6
f 608/1/6 609/1/6 613/1/6
f 611/1/6 612/1/6 613/1/6
f 610/1/6 611/1/6 613/1/6
f 609/1/6 610/1/6 613/1/6
f 613/1/6 612/1/6 614/1/6
f 608/1/6 613/1/6 615/1/6
f 615/1/6 613/1/6 616/1/6
f 616/1/6 613/1/6 617/1/6
f 613/2/6 614/2/6 618/2/6
f 617/1/6 613/1/6 618/1/6
f 618/2/6 614/2/6 619/2/6
f 616/1/6 617/1/6 620/1/6
f 617/2/6 618/2/6 621/2/6
f 620/1/6 617/1/6 621/1/6
f 621/2/6 618/2/6 622/2/6
f 623/2/6 624/2/6 625/2/6
f 625/2/6 624/2/6 626/2/6
f 627/1/6 628/1/6 629/1/6
f 629/1/6 628/1/6 630/1/6
f 629/2/6 630/2/6 631/2/6
f 631/2/6 630/2/6 632/2/6
f 633/1/6 634/1/6 635/1/6
f 635/1/6 634/1/6 636/1/6
f 637/1/6 638/1/6 640/1/6
f 638/1/6 639/1/6 640/1/6
f 640/1/6 639/1/6 641/1/6
f 642/1/6 643/1/6 644/1/6
f 644/1/6 643/1/6 645/1/6
f 642/1/6 644/1/6 646/1/6
f 644/2/6 645/2/6 647/2/6
f 646/1/6 644/1/6 647/1/6
f 647/2/6 645/2/6 648/2/6
f 649/1/6 650/1/6 651/1/6
f 651/1/6 650/1/6 652/1/6
f 651/2/6 652/2/6 653/2/6
f 653/2/6 652/2/6 654/2/6
f 655/1/6 656/1/6 657/1/6
f 657/1/6 656/1/6 658/1/6
f 657/2/6 658/2/6 659/2/6
f 659/2/6 658/2/6 660/2/6
f 661/1/6 662/1/6 663/1/6
f 663/1/6 662/1/6 664/1/6
f 663/2/6 664/2/6 665/2/6
f 665/2/6 664/2/6 666/2/6
f 667/1/6 668/1/6 669/1/6
f 669/1/6 668/1/6 670/1/6
f 669/2/6 670/2/6 671/2/6
f 671/2/6 670/2/6 672/2/6
f 673/1/6 674/1/6 675/1/6
f 675/1/6 674/1/6 676/1/6
f 675/2/6 676/2/6 677/2/6
f 677/2/6 676/2/6 678/2/6
f 679/1/6 680/1/6 681/1/6
f 681/1/6 680/1/6 682/1/6
f 681/2/6 682/2/6 683/2/6
f 683/2/6 682/2/6 684/2/6
f 685/1/6 686/1/6 687/1/6
f 687/1/6 686/1/6 688/1/6
f 687/2/6 688/2/6 689/2/6
f 689/2/6 688/2/6 690/2/6
f 691/1/6 692/1/6 693/1/6
f 693/1/6 692/1/6 694/1/6
f 693/2/6 694/2/6 695/2/6
f 695/2/6 694/2/6 696/2/6
f 697/1/6 698/1/6 699/1/6
f 699/1/6 698/1/6 700/1/6
f 699/2/6 700/2/6 701/2/6
f 701/2/6 700/2/6 702/2/6
f 703/1/6 704/1/6 705/1/6
f 705/1/6 704/1/6 706/1/6
f 705/2/6 706/2/6 707/2/6
f 707/2/6 706/2/6 708/2/6
f 709/1/6 710/1/6 711/1/6
f 711/1/6 710/1/6 712/1/6
f 711/2/6 712/2/6 713/2/6
f 713/2/6 712/2/6 714/2/6
f 715/1/6 716/1/6 717/1/6
f 717/1/6 716/1/6 718/1/6
f 717/2/6 718/2/6 719/2/6
f 719/2/6 718/2/6 720/2/6
f 721/1/6 722/1/6 723/1/6
f 723/1/6 722/1/6 724/1/6
f 723/2/6 724/2/6 725/2/6
f 725/2/6 724/2/6 726/2/6
f 727/1/6 728/1/6 729/1/6
f 729/1/6 728/1/6 730/1/6
f 729/2/6 730/2/6 731/2/6
f 731/2/6 730/2/6 732/2/6
