# MagicaVoxel @ Ephtracy

# material
mtllib note.mtl
usemtl palette

# normals
vn -1 0 0
vn 1 0 0
vn 0 0 1
vn 0 0 -1
vn 0 -1 0
vn 0 1 0

# texcoords
vt 0.0527344 0.5
vt 0.0957031 0.5
vt 0.0996094 0.5
vt 0.123047 0.5

# verts
v -5 0 5.5
v -5 0 4.5
v -5 0 1.5
v -5 0 0.5
v -5 0 -5.5
v -5 1 5.5
v -5 1 4.5
v -5 1 1.5
v -5 1 0.5
v -5 1 -5.5
v -4 0 4.5
v -4 0 3.5
v -4 0 2.5
v -4 0 1.5
v -4 1 4.5
v -4 1 3.5
v -4 1 2.5
v -4 1 1.5
v -3 0 3.5
v -3 0 2.5
v -3 1 3.5
v -3 1 2.5
v 4 0 -4.5
v 4 0 -5.5
v 4 1 -4.5
v 4 1 -5.5
v 5 0 -3.5
v 5 0 -4.5
v 5 1 -3.5
v 5 1 -4.5
v 6 0 5.5
v 6 0 3.5
v 6 0 2.5
v 6 0 -2.5
v 6 0 -3.5
v 6 1 5.5
v 6 1 3.5
v 6 1 2.5
v 6 1 -2.5
v 6 1 -3.5
v -5 0 5.5
v -5 1 5.5
v -1 0 5.5
v -1 1 5.5
v 2 0 5.5
v 2 1 5.5
v 3 0 5.5
v 3 1 5.5
v 6 0 5.5
v 6 1 5.5
v -4 0 2.5
v -4 1 2.5
v -3 0 2.5
v -3 1 2.5
v -5 0 1.5
v -5 1 1.5
v -4 0 1.5
v -4 1 1.5
v -5 0 4.5
v -5 1 4.5
v -4 0 4.5
v -4 1 4.5
v -4 0 3.5
v -4 1 3.5
v -3 0 3.5
v -3 1 3.5
v 5 0 -3.5
v 5 1 -3.5
v 6 0 -3.5
v 6 1 -3.5
v 4 0 -4.5
v 4 1 -4.5
v 5 0 -4.5
v 5 1 -4.5
v -5 0 -5.5
v -5 1 -5.5
v 0 0 -5.5
v 0 1 -5.5
v 2 0 -5.5
v 2 1 -5.5
v 4 0 -5.5
v 4 1 -5.5
v -5 0 5.5
v -1 0 5.5
v 2 0 5.5
v 3 0 5.5
v 6 0 5.5
v -5 0 4.5
v -4 0 4.5
v -3 0 4.5
v -1 0 4.5
v 2 0 4.5
v 3 0 4.5
v -4 0 3.5
v -3 0 3.5
v -2 0 3.5
v -1 0 3.5
v 3 0 3.5
v 4 0 3.5
v 6 0 3.5
v -4 0 2.5
v -3 0 2.5
v -2 0 2.5
v -1 0 2.5
v 0 0 2.5
v 1 0 2.5
v 2 0 2.5
v 3 0 2.5
v 4 0 2.5
v 5 0 2.5
v 6 0 2.5
v -5 0 1.5
v -4 0 1.5
v -3 0 1.5
v -2 0 1.5
v -1 0 1.5
v 0 0 1.5
v 1 0 1.5
v 2 0 1.5
v 4 0 1.5
v 5 0 1.5
v -5 0 0.5
v -3 0 0.5
v 0 0 0.5
v 2 0 0.5
v 3 0 0.5
v -2 0 -0.5
v -1 0 -0.5
v 2 0 -0.5
v 3 0 -0.5
v 4 0 -0.5
v 5 0 -0.5
v -4 0 -1.5
v -3 0 -1.5
v -2 0 -1.5
v -1 0 -1.5
v 0 0 -1.5
v 2 0 -1.5
v 3 0 -1.5
v 4 0 -1.5
v 5 0 -1.5
v -4 0 -2.5
v -3 0 -2.5
v -2 0 -2.5
v -1 0 -2.5
v 5 0 -2.5
v 6 0 -2.5
v -3 0 -3.5
v -2 0 -3.5
v 5 0 -3.5
v 6 0 -3.5
v -3 0 -4.5
v -2 0 -4.5
v 4 0 -4.5
v 5 0 -4.5
v -5 0 -5.5
v 0 0 -5.5
v 2 0 -5.5
v 4 0 -5.5
v -5 1 5.5
v -1 1 5.5
v 2 1 5.5
v 3 1 5.5
v 6 1 5.5
v -5 1 4.5
v -4 1 4.5
v -3 1 4.5
v -1 1 4.5
v 2 1 4.5
v 3 1 4.5
v -4 1 3.5
v -3 1 3.5
v -2 1 3.5
v -1 1 3.5
v 3 1 3.5
v 4 1 3.5
v 6 1 3.5
v -4 1 2.5
v -3 1 2.5
v -2 1 2.5
v -1 1 2.5
v 0 1 2.5
v 1 1 2.5
v 2 1 2.5
v 3 1 2.5
v 4 1 2.5
v 5 1 2.5
v 6 1 2.5
v -5 1 1.5
v -4 1 1.5
v -3 1 1.5
v -2 1 1.5
v -1 1 1.5
v 0 1 1.5
v 1 1 1.5
v 2 1 1.5
v 4 1 1.5
v 5 1 1.5
v -5 1 0.5
v -3 1 0.5
v 0 1 0.5
v 2 1 0.5
v 3 1 0.5
v -2 1 -0.5
v -1 1 -0.5
v 2 1 -0.5
v 3 1 -0.5
v 4 1 -0.5
v 5 1 -0.5
v -4 1 -1.5
v -3 1 -1.5
v -2 1 -1.5
v -1 1 -1.5
v 0 1 -1.5
v 2 1 -1.5
v 3 1 -1.5
v 4 1 -1.5
v 5 1 -1.5
v -4 1 -2.5
v -3 1 -2.5
v -2 1 -2.5
v -1 1 -2.5
v 5 1 -2.5
v 6 1 -2.5
v -3 1 -3.5
v -2 1 -3.5
v 5 1 -3.5
v 6 1 -3.5
v -3 1 -4.5
v -2 1 -4.5
v 4 1 -4.5
v 5 1 -4.5
v -5 1 -5.5
v 0 1 -5.5
v 2 1 -5.5
v 4 1 -5.5

# faces
f 6/4/1 2/4/1 1/4/1
f 7/4/1 2/4/1 6/4/1
f 8/4/1 4/4/1 3/4/1
f 9/1/1 5/1/1 4/1/1
f 9/4/1 4/4/1 8/4/1
f 10/1/1 5/1/1 9/1/1
f 15/4/1 12/4/1 11/4/1
f 16/4/1 12/4/1 15/4/1
f 17/1/1 14/1/1 13/1/1
f 18/1/1 14/1/1 17/1/1
f 21/4/1 20/4/1 19/4/1
f 22/4/1 20/4/1 21/4/1
f 23/1/2 24/1/2 25/1/2
f 25/1/2 24/1/2 26/1/2
f 27/1/2 28/1/2 29/1/2
f 29/1/2 28/1/2 30/1/2
f 31/1/2 32/1/2 36/1/2
f 32/4/2 33/4/2 37/4/2
f 36/1/2 32/1/2 37/1/2
f 33/1/2 34/1/2 38/1/2
f 37/4/2 33/4/2 38/4/2
f 34/4/2 35/4/2 39/4/2
f 38/1/2 34/1/2 39/1/2
f 39/4/2 35/4/2 40/4/2
f 43/4/3 42/4/3 41/4/3
f 44/4/3 42/4/3 43/4/3
f 45/1/3 44/1/3 43/1/3
f 46/1/3 44/1/3 45/1/3
f 47/4/3 46/4/3 45/4/3
f 48/4/3 46/4/3 47/4/3
f 49/1/3 48/1/3 47/1/3
f 50/1/3 48/1/3 49/1/3
f 53/1/3 52/1/3 51/1/3
f 54/1/3 52/1/3 53/1/3
f 57/4/3 56/4/3 55/4/3
f 58/4/3 56/4/3 57/4/3
f 59/4/4 60/4/4 61/4/4
f 61/4/4 60/4/4 62/4/4
f 63/4/4 64/4/4 65/4/4
f 65/4/4 64/4/4 66/4/4
f 67/4/4 68/4/4 69/4/4
f 69/4/4 68/4/4 70/4/4
f 71/1/4 72/1/4 73/1/4
f 73/1/4 72/1/4 74/1/4
f 75/1/4 76/1/4 77/1/4
f 77/1/4 76/1/4 78/1/4
f 77/4/4 78/4/4 79/4/4
f 79/4/4 78/4/4 80/4/4
f 79/1/4 80/1/4 81/1/4
f 81/1/4 80/1/4 82/1/4
f 88/4/5 84/4/5 83/4/5
f 89/4/5 84/4/5 88/4/5
f 90/4/5 84/4/5 89/4/5
f 91/1/5 85/1/5 84/1/5
f 91/4/5 84/4/5 90/4/5
f 92/4/5 86/4/5 85/4/5
f 92/1/5 85/1/5 91/1/5
f 93/1/5 87/1/5 86/1/5
f 93/4/5 86/4/5 92/4/5
f 94/4/5 90/4/5 89/4/5
f 95/1/5 92/1/5 91/1/5
f 95/4/5 90/4/5 94/4/5
f 95/1/5 91/1/5 90/1/5
f 95/1/5 93/1/5 92/1/5
f 96/1/5 93/1/5 95/1/5
f 97/1/5 93/1/5 96/1/5
f 98/1/5 87/1/5 93/1/5
f 98/1/5 93/1/5 97/1/5
f 99/1/5 87/1/5 98/1/5
f 100/1/5 87/1/5 99/1/5
f 102/4/5 96/4/5 95/4/5
f 103/3/5 97/3/5 96/3/5
f 103/4/5 96/4/5 102/4/5
f 104/2/5 98/2/5 97/2/5
f 104/3/5 97/3/5 103/3/5
f 105/2/5 98/2/5 104/2/5
f 106/2/5 98/2/5 105/2/5
f 107/2/5 98/2/5 106/2/5
f 108/3/5 99/3/5 98/3/5
f 108/2/5 98/2/5 107/2/5
f 109/4/5 100/4/5 99/4/5
f 109/3/5 99/3/5 108/3/5
f 110/4/5 100/4/5 109/4/5
f 111/4/5 100/4/5 110/4/5
f 113/1/5 102/1/5 101/1/5
f 113/1/5 103/1/5 102/1/5
f 114/1/5 103/1/5 113/1/5
f 115/4/5 104/4/5 103/4/5
f 115/1/5 103/1/5 114/1/5
f 116/2/5 105/2/5 104/2/5
f 116/4/5 104/4/5 115/4/5
f 117/1/5 106/1/5 105/1/5
f 117/2/5 105/2/5 116/2/5
f 118/4/5 107/4/5 106/4/5
f 118/1/5 106/1/5 117/1/5
f 119/1/5 108/1/5 107/1/5
f 119/4/5 107/4/5 118/4/5
f 119/1/5 109/1/5 108/1/5
f 120/4/5 110/4/5 109/4/5
f 120/1/5 109/1/5 119/1/5
f 121/1/5 111/1/5 110/1/5
f 121/4/5 110/4/5 120/4/5
f 122/4/5 114/4/5 113/4/5
f 122/4/5 113/4/5 112/4/5
f 123/1/5 117/1/5 116/1/5
f 123/4/5 114/4/5 122/4/5
f 123/1/5 115/1/5 114/1/5
f 123/1/5 116/1/5 115/1/5
f 124/2/5 118/2/5 117/2/5
f 124/1/5 117/1/5 123/1/5
f 124/2/5 119/2/5 118/2/5
f 125/1/5 120/1/5 119/1/5
f 125/2/5 119/2/5 124/2/5
f 125/1/5 121/1/5 120/1/5
f 126/1/5 121/1/5 125/1/5
f 127/1/5 123/1/5 122/1/5
f 127/1/5 124/1/5 123/1/5
f 127/1/5 125/1/5 124/1/5
f 128/1/5 125/1/5 127/1/5
f 129/2/5 126/2/5 125/2/5
f 129/1/5 125/1/5 128/1/5
f 130/1/5 121/1/5 126/1/5
f 130/2/5 126/2/5 129/2/5
f 131/1/5 121/1/5 130/1/5
f 132/1/5 111/1/5 121/1/5
f 132/1/5 121/1/5 131/1/5
f 133/1/5 127/1/5 122/1/5
f 134/1/5 127/1/5 133/1/5
f 135/3/5 128/3/5 127/3/5
f 135/1/5 127/1/5 134/1/5
f 136/2/5 129/2/5 128/2/5
f 136/3/5 128/3/5 135/3/5
f 136/2/5 130/2/5 129/2/5
f 137/2/5 130/2/5 136/2/5
f 138/2/5 130/2/5 137/2/5
f 139/3/5 131/3/5 130/3/5
f 139/2/5 130/2/5 138/2/5
f 140/4/5 132/4/5 131/4/5
f 140/3/5 131/3/5 139/3/5
f 141/1/5 111/1/5 132/1/5
f 141/4/5 132/4/5 140/4/5
f 142/4/5 134/4/5 133/4/5
f 142/1/5 133/1/5 122/1/5
f 143/1/5 135/1/5 134/1/5
f 143/4/5 134/4/5 142/4/5
f 144/4/5 136/4/5 135/4/5
f 144/1/5 135/1/5 143/1/5
f 145/1/5 137/1/5 136/1/5
f 145/4/5 136/4/5 144/4/5
f 146/1/5 111/1/5 141/1/5
f 146/1/5 140/1/5 139/1/5
f 146/1/5 141/1/5 140/1/5
f 146/1/5 139/1/5 138/1/5
f 147/1/5 111/1/5 146/1/5
f 148/1/5 145/1/5 144/1/5
f 148/1/5 144/1/5 143/1/5
f 148/1/5 143/1/5 142/1/5
f 149/1/5 145/1/5 148/1/5
f 150/4/5 147/4/5 146/4/5
f 150/1/5 146/1/5 138/1/5
f 151/4/5 147/4/5 150/4/5
f 152/4/5 149/4/5 148/4/5
f 152/1/5 148/1/5 142/1/5
f 153/1/5 145/1/5 149/1/5
f 153/4/5 149/4/5 152/4/5
f 154/1/5 150/1/5 138/1/5
f 155/1/5 150/1/5 154/1/5
f 156/1/5 142/1/5 122/1/5
f 156/1/5 152/1/5 142/1/5
f 156/1/5 153/1/5 152/1/5
f 157/1/5 137/1/5 145/1/5
f 157/1/5 153/1/5 156/1/5
f 157/4/5 138/4/5 137/4/5
f 157/1/5 145/1/5 153/1/5
f 158/1/5 154/1/5 138/1/5
f 158/4/5 138/4/5 157/4/5
f 159/1/5 154/1/5 158/1/5
f 160/4/6 161/4/6 165/4/6
f 165/4/6 161/4/6 166/4/6
f 166/4/6 161/4/6 167/4/6
f 161/1/6 162/1/6 168/1/6
f 167/4/6 161/4/6 168/4/6
f 162/4/6 163/4/6 169/4/6
f 168/1/6 162/1/6 169/1/6
f 163/1/6 164/1/6 170/1/6
f 169/4/6 163/4/6 170/4/6
f 166/4/6 167/4/6 171/4/6
f 168/1/6 169/1/6 172/1/6
f 171/4/6 167/4/6 172/4/6
f 167/1/6 168/1/6 172/1/6
f 169/1/6 170/1/6 172/1/6
f 172/1/6 170/1/6 173/1/6
f 173/1/6 170/1/6 174/1/6
f 170/1/6 164/1/6 175/1/6
f 174/1/6 170/1/6 175/1/6
f 175/1/6 164/1/6 176/1/6
f 176/1/6 164/1/6 177/1/6
f 172/4/6 173/4/6 179/4/6
f 173/3/6 174/3/6 180/3/6
f 179/4/6 173/4/6 180/4/6
f 174/2/6 175/2/6 181/2/6
f 180/3/6 174/3/6 181/3/6
f 181/2/6 175/2/6 182/2/6
f 182/2/6 175/2/6 183/2/6
f 183/2/6 175/2/6 184/2/6
f 175/3/6 176/3/6 185/3/6
f 184/2/6 175/2/6 185/2/6
f 176/4/6 177/4/6 186/4/6
f 185/3/6 176/3/6 186/3/6
f 186/4/6 177/4/6 187/4/6
f 187/4/6 177/4/6 188/4/6
f 178/1/6 179/1/6 190/1/6
f 179/1/6 180/1/6 190/1/6
f 190/1/6 180/1/6 191/1/6
f 180/4/6 181/4/6 192/4/6
f 191/1/6 180/1/6 192/1/6
f 181/2/6 182/2/6 193/2/6
f 192/4/6 181/4/6 193/4/6
f 182/1/6 183/1/6 194/1/6
f 193/2/6 182/2/6 194/2/6
f 183/4/6 184/4/6 195/4/6
f 194/1/6 183/1/6 195/1/6
f 184/1/6 185/1/6 196/1/6
f 195/4/6 184/4/6 196/4/6
f 185/1/6 186/1/6 196/1/6
f 186/4/6 187/4/6 197/4/6
f 196/1/6 186/1/6 197/1/6
f 187/1/6 188/1/6 198/1/6
f 197/4/6 187/4/6 198/4/6
f 190/4/6 191/4/6 199/4/6
f 189/4/6 190/4/6 199/4/6
f 193/1/6 194/1/6 200/1/6
f 199/4/6 191/4/6 200/4/6
f 191/1/6 192/1/6 200/1/6
f 192/1/6 193/1/6 200/1/6
f 194/2/6 195/2/6 201/2/6
f 200/1/6 194/1/6 201/1/6
f 195/2/6 196/2/6 201/2/6
f 196/1/6 197/1/6 202/1/6
f 201/2/6 196/2/6 202/2/6
f 197/1/6 198/1/6 202/1/6
f 202/1/6 198/1/6 203/1/6
f 199/1/6 200/1/6 204/1/6
f 200/1/6 201/1/6 204/1/6
f 201/1/6 202/1/6 204/1/6
f 204/1/6 202/1/6 205/1/6
f 202/2/6 203/2/6 206/2/6
f 205/1/6 202/1/6 206/1/6
f 203/1/6 198/1/6 207/1/6
f 206/2/6 203/2/6 207/2/6
f 207/1/6 198/1/6 208/1/6
f 198/1/6 188/1/6 209/1/6
f 208/1/6 198/1/6 209/1/6
f 199/1/6 204/1/6 210/1/6
f 210/1/6 204/1/6 211/1/6
f 204/3/6 205/3/6 212/3/6
f 211/1/6 204/1/6 212/1/6
f 205/2/6 206/2/6 213/2/6
f 212/3/6 205/3/6 213/3/6
f 206/2/6 207/2/6 213/2/6
f 213/2/6 207/2/6 214/2/6
f 214/2/6 207/2/6 215/2/6
f 207/3/6 208/3/6 216/3/6
f 215/2/6 207/2/6 216/2/6
f 208/4/6 209/4/6 217/4/6
f 216/3/6 208/3/6 217/3/6
f 209/1/6 188/1/6 218/1/6
f 217/4/6 209/4/6 218/4/6
f 210/4/6 211/4/6 219/4/6
f 199/1/6 210/1/6 219/1/6
f 211/1/6 212/1/6 220/1/6
f 219/4/6 211/4/6 220/4/6
f 212/4/6 213/4/6 221/4/6
f 220/1/6 212/1/6 221/1/6
f 213/1/6 214/1/6 222/1/6
f 221/4/6 213/4/6 222/4/6
f 218/1/6 188/1/6 223/1/6
f 216/1/6 217/1/6 223/1/6
f 217/1/6 218/1/6 223/1/6
f 215/1/6 216/1/6 223/1/6
f 223/1/6 188/1/6 224/1/6
f 221/1/6 222/1/6 225/1/6
f 220/1/6 221/1/6 225/1/6
f 219/1/6 220/1/6 225/1/6
f 225/1/6 222/1/6 226/1/6
f 223/4/6 224/4/6 227/4/6
f 215/1/6 223/1/6 227/1/6
f 227/4/6 224/4/6 228/4/6
f 225/4/6 226/4/6 229/4/6
f 219/1/6 225/1/6 229/1/6
f 226/1/6 222/1/6 230/1/6
f 229/4/6 226/4/6 230/4/6
f 215/1/6 227/1/6 231/1/6
f 231/1/6 227/1/6 232/1/6
f 199/1/6 219/1/6 233/1/6
f 219/1/6 229/1/6 233/1/6
f 229/1/6 230/1/6 233/1/6
f 222/1/6 214/1/6 234/1/6
f 233/1/6 230/1/6 234/1/6
f 214/4/6 215/4/6 234/4/6
f 230/1/6 222/1/6 234/1/6
f 215/1/6 231/1/6 235/1/6
f 234/4/6 215/4/6 235/4/6
f 235/1/6 231/1/6 236/1/6
