# Blender v2.78 (sub 0) OBJ File: ''
# www.blender.org
mtllib powder_flask.mtl
o powder_flask.001
v -3.000000 1.999999 7.000000
v -3.000000 0.999999 5.000000
v -3.000000 0.999999 7.000000
v -3.000000 1.999999 5.000000
v -3.000000 4.999999 9.000001
v -3.000000 1.999999 9.000000
v -3.000000 1.999999 4.000000
v -3.000000 5.000000 4.000001
v -3.000000 7.999999 9.000001
v -3.000000 8.000000 4.000001
v -3.000000 9.999998 9.000002
v -3.000000 9.999999 4.000001
v -2.000000 0.999999 8.000000
v -2.000000 -0.000001 5.000000
v -2.000000 -0.000001 8.000000
v -2.000000 0.999999 7.000000
v -2.000000 0.999999 5.000000
v -2.000000 1.999999 9.000000
v -2.000000 0.999999 9.000000
v -2.000000 1.999999 7.000000
v -2.000000 1.999999 5.000000
v -2.000000 0.999999 4.000000
v -2.000000 1.999999 4.000000
v -2.000000 4.999999 10.000001
v -2.000000 1.999998 10.000000
v -2.000000 4.999999 9.000001
v -2.000000 5.000000 4.000001
v -2.000000 2.000000 3.000000
v -2.000000 5.000000 3.000001
v -2.000000 7.999999 10.000001
v -2.000000 7.999999 9.000001
v -2.000000 8.000000 4.000001
v -2.000000 8.000000 3.000001
v -2.000000 9.999998 10.000002
v -2.000000 9.999998 9.000002
v -2.000000 9.999999 4.000001
v -2.000000 9.999999 3.000002
v -1.000000 0.999999 9.000000
v -1.000000 -0.000001 8.000000
v -1.000000 -0.000001 9.000000
v -1.000000 0.999999 8.000000
v -1.000000 0.999999 5.000000
v -1.000000 -0.000001 4.000000
v -1.000000 -0.000001 5.000000
v -1.000000 0.999999 4.000000
v -1.000000 1.999998 10.000000
v -1.000000 0.999998 10.000000
v -1.000000 1.999999 9.000000
v -1.000000 1.999999 4.000000
v -1.000000 1.000000 3.000000
v -1.000000 2.000000 3.000000
v 2.000000 -0.000001 9.000000
v 2.000000 -0.000001 8.000000
v 2.000000 0.999999 9.000000
v 2.000000 0.999999 8.000000
v 2.000000 -0.000001 5.000000
v 2.000000 -0.000001 4.000000
v 2.000000 0.999999 5.000000
v 2.000000 0.999999 4.000000
v 2.000000 0.999998 10.000000
v 2.000000 1.999998 10.000000
v 2.000000 1.999999 9.000000
v 2.000000 1.000000 3.000000
v 2.000000 1.999999 4.000000
v 2.000000 2.000000 3.000000
v 3.000000 -0.000001 8.000000
v 3.000000 -0.000001 5.000000
v 3.000000 0.999999 8.000000
v 3.000000 0.999999 5.000000
v 3.000000 0.999999 9.000000
v 3.000000 1.999999 9.000000
v 3.000000 1.999999 8.000000
v 3.000000 0.999999 4.000000
v 3.000000 1.999999 5.000000
v 3.000000 1.999999 4.000000
v 3.000000 1.999998 10.000000
v 3.000000 4.999999 10.000001
v 3.000000 4.999999 9.000001
v 3.000000 2.000000 3.000000
v 3.000000 5.000000 4.000001
v 3.000000 5.000000 3.000001
v 3.000000 7.999999 10.000001
v 3.000000 7.999999 9.000001
v 3.000000 8.000000 4.000001
v 3.000000 8.000000 3.000001
v 3.000000 9.999998 10.000002
v 3.000000 9.999998 9.000002
v 3.000000 9.999999 4.000001
v 3.000000 9.999999 3.000002
v 4.000000 0.999999 8.000000
v 4.000000 0.999999 5.000000
v 4.000000 1.999999 8.000000
v 4.000000 1.999999 5.000000
v 4.000000 1.999999 9.000000
v 4.000000 4.999999 9.000001
v 4.000000 1.999999 4.000000
v 4.000000 5.000000 4.000001
v 4.000000 7.999999 9.000001
v 4.000000 8.000000 4.000001
v 4.000000 9.999998 9.000002
v 4.000000 9.999999 4.000001
v -1.000000 1.999998 10.000000
v -2.000000 4.999999 10.000001
v -2.000000 1.999998 10.000000
v 2.000000 0.999998 10.000000
v -1.000000 0.999998 10.000000
v 2.000000 1.999998 10.000000
v 3.000000 1.999998 10.000000
v 3.000000 4.999999 10.000001
v -2.000000 7.999999 10.000001
v 3.000000 7.999999 10.000001
v -2.000000 9.999998 10.000002
v 3.000000 9.999998 10.000002
v -2.000000 1.999999 9.000000
v -3.000000 4.999999 9.000001
v -3.000000 1.999999 9.000000
v -2.000000 4.999999 9.000001
v -3.000000 7.999999 9.000001
v -2.000000 7.999999 9.000001
v -3.000000 9.999998 9.000002
v -2.000000 9.999998 9.000002
v -1.000000 0.999999 9.000000
v -2.000000 0.999999 9.000000
v -1.000000 1.999999 9.000000
v 2.000000 -0.000001 9.000000
v -1.000000 -0.000001 9.000000
v 2.000000 0.999999 9.000000
v 3.000000 0.999999 9.000000
v 2.000000 1.999999 9.000000
v 3.000000 1.999999 9.000000
v 4.000000 1.999999 9.000000
v 3.000000 4.999999 9.000001
v 4.000000 4.999999 9.000001
v 3.000000 7.999999 9.000001
v 4.000000 7.999999 9.000001
v 3.000000 9.999998 9.000002
v 4.000000 9.999998 9.000002
v -1.000000 -0.000001 8.000000
v -2.000000 0.999999 8.000000
v -2.000000 -0.000001 8.000000
v -1.000000 0.999999 8.000000
v 3.000000 -0.000001 8.000000
v 2.000000 0.999999 8.000000
v 2.000000 -0.000001 8.000000
v 3.000000 0.999999 8.000000
v 4.000000 0.999999 8.000000
v 3.000000 1.999999 8.000000
v 4.000000 1.999999 8.000000
v -2.000000 0.999999 7.000000
v -3.000000 1.999999 7.000000
v -3.000000 0.999999 7.000000
v -2.000000 1.999999 7.000000
v -3.000000 0.999999 5.000000
v -3.000000 1.999999 5.000000
v -2.000000 0.999999 5.000000
v -2.000000 1.999999 5.000000
v -2.000000 -0.000001 5.000000
v -1.000000 -0.000001 5.000000
v -1.000000 0.999999 5.000000
v 2.000000 -0.000001 5.000000
v 2.000000 0.999999 5.000000
v 3.000000 -0.000001 5.000000
v 3.000000 0.999999 5.000000
v 3.000000 1.999999 5.000000
v 4.000000 0.999999 5.000000
v 4.000000 1.999999 5.000000
v -3.000000 1.999999 4.000000
v -3.000000 5.000000 4.000001
v -2.000000 1.999999 4.000000
v -3.000000 8.000000 4.000001
v -2.000000 5.000000 4.000001
v -3.000000 9.999999 4.000001
v -2.000000 8.000000 4.000001
v -2.000000 9.999999 4.000001
v -2.000000 0.999999 4.000000
v -1.000000 0.999999 4.000000
v -1.000000 1.999999 4.000000
v -1.000000 -0.000001 4.000000
v 2.000000 -0.000001 4.000000
v 2.000000 0.999999 4.000000
v 2.000000 1.999999 4.000000
v 3.000000 0.999999 4.000000
v 3.000000 1.999999 4.000000
v 3.000000 5.000000 4.000001
v 4.000000 1.999999 4.000000
v 3.000000 8.000000 4.000001
v 4.000000 5.000000 4.000001
v 3.000000 9.999999 4.000001
v 4.000000 8.000000 4.000001
v 4.000000 9.999999 4.000001
v -2.000000 2.000000 3.000000
v -2.000000 5.000000 3.000001
v -1.000000 2.000000 3.000000
v -1.000000 1.000000 3.000000
v 2.000000 1.000000 3.000000
v 2.000000 2.000000 3.000000
v 3.000000 2.000000 3.000000
v -2.000000 8.000000 3.000001
v 3.000000 5.000000 3.000001
v -2.000000 9.999999 3.000002
v 3.000000 8.000000 3.000001
v 3.000000 9.999999 3.000002
v -1.000000 -0.000001 8.000000
v 2.000000 -0.000001 9.000000
v -1.000000 -0.000001 9.000000
v 2.000000 -0.000001 8.000000
v -2.000000 -0.000001 5.000000
v -2.000000 -0.000001 8.000000
v 3.000000 -0.000001 8.000000
v -1.000000 -0.000001 5.000000
v 2.000000 -0.000001 5.000000
v 3.000000 -0.000001 5.000000
v -1.000000 -0.000001 4.000000
v 2.000000 -0.000001 4.000000
v -1.000000 0.999999 9.000000
v 2.000000 0.999998 10.000000
v -1.000000 0.999998 10.000000
v 2.000000 0.999999 9.000000
v -2.000000 0.999999 8.000000
v -2.000000 0.999999 9.000000
v -1.000000 0.999999 8.000000
v 2.000000 0.999999 8.000000
v 3.000000 0.999999 9.000000
v 3.000000 0.999999 8.000000
v -3.000000 0.999999 5.000000
v -2.000000 0.999999 7.000000
v -3.000000 0.999999 7.000000
v -2.000000 0.999999 5.000000
v 3.000000 0.999999 5.000000
v 4.000000 0.999999 8.000000
v 4.000000 0.999999 5.000000
v -2.000000 0.999999 4.000000
v -1.000000 0.999999 5.000000
v -1.000000 0.999999 4.000000
v 2.000000 0.999999 4.000000
v 2.000000 0.999999 5.000000
v 3.000000 0.999999 4.000000
v -1.000000 1.000000 3.000000
v 2.000000 1.000000 3.000000
v -2.000000 1.999999 9.000000
v -1.000000 1.999998 10.000000
v -2.000000 1.999998 10.000000
v -1.000000 1.999999 9.000000
v 2.000000 1.999999 9.000000
v 3.000000 1.999998 10.000000
v 2.000000 1.999998 10.000000
v 3.000000 1.999999 9.000000
v 3.000000 1.999999 8.000000
v 4.000000 1.999999 9.000000
v 4.000000 1.999999 8.000000
v -3.000000 1.999999 7.000000
v -3.000000 1.999999 9.000000
v -2.000000 1.999999 7.000000
v -3.000000 1.999999 4.000000
v -2.000000 1.999999 5.000000
v -3.000000 1.999999 5.000000
v -2.000000 1.999999 4.000000
v 3.000000 1.999999 4.000000
v 4.000000 1.999999 5.000000
v 3.000000 1.999999 5.000000
v 4.000000 1.999999 4.000000
v -2.000000 2.000000 3.000000
v -1.000000 1.999999 4.000000
v -1.000000 2.000000 3.000000
v 2.000000 2.000000 3.000000
v 2.000000 1.999999 4.000000
v 3.000000 2.000000 3.000000
v -2.000000 9.999998 10.000002
v 3.000000 9.999998 10.000002
v -2.000000 9.999998 9.000002
v 3.000000 9.999998 9.000002
v -3.000000 9.999998 9.000002
v -3.000000 9.999999 4.000001
v 4.000000 9.999998 9.000002
v -2.000000 9.999999 4.000001
v 3.000000 9.999999 4.000001
v 4.000000 9.999999 4.000001
v -2.000000 9.999999 3.000002
v 3.000000 9.999999 3.000002
vt 0.0527 0.5000
vt 0.0527 0.5000
vt 0.0527 0.5000
vt 0.0527 0.5000
vt 0.0527 0.5000
vt 0.0527 0.5000
vt 0.0527 0.5000
vt 0.0527 0.5000
vt 0.0996 0.5000
vt 0.0996 0.5000
vt 0.0996 0.5000
vt 0.0996 0.5000
vt 0.0527 0.5000
vt 0.0527 0.5000
vt 0.0527 0.5000
vt 0.0527 0.5000
vt 0.0527 0.5000
vt 0.0527 0.5000
vt 0.0527 0.5000
vt 0.0527 0.5000
vt 0.0527 0.5000
vt 0.0527 0.5000
vt 0.0527 0.5000
vt 0.0527 0.5000
vt 0.0527 0.5000
vt 0.0527 0.5000
vt 0.0527 0.5000
vt 0.0527 0.5000
vt 0.0527 0.5000
vt 0.0996 0.5000
vt 0.0996 0.5000
vt 0.0996 0.5000
vt 0.0996 0.5000
vt 0.0996 0.5000
vt 0.0996 0.5000
vt 0.0996 0.5000
vt 0.0996 0.5000
vt 0.0527 0.5000
vt 0.0527 0.5000
vt 0.0527 0.5000
vt 0.0527 0.5000
vt 0.0527 0.5000
vt 0.0527 0.5000
vt 0.0527 0.5000
vt 0.0527 0.5000
vt 0.0527 0.5000
vt 0.0527 0.5000
vt 0.0527 0.5000
vt 0.0527 0.5000
vt 0.0527 0.5000
vt 0.0527 0.5000
vt 0.0527 0.5000
vt 0.0527 0.5000
vt 0.0527 0.5000
vt 0.0527 0.5000
vt 0.0527 0.5000
vt 0.0527 0.5000
vt 0.0527 0.5000
vt 0.0527 0.5000
vt 0.0527 0.5000
vt 0.0527 0.5000
vt 0.0527 0.5000
vt 0.0527 0.5000
vt 0.0527 0.5000
vt 0.0527 0.5000
vt 0.0527 0.5000
vt 0.0527 0.5000
vt 0.0527 0.5000
vt 0.0527 0.5000
vt 0.0527 0.5000
vt 0.0527 0.5000
vt 0.0527 0.5000
vt 0.0527 0.5000
vt 0.0527 0.5000
vt 0.0527 0.5000
vt 0.0527 0.5000
vt 0.0527 0.5000
vt 0.0527 0.5000
vt 0.0527 0.5000
vt 0.0527 0.5000
vt 0.0527 0.5000
vt 0.0996 0.5000
vt 0.0996 0.5000
vt 0.0996 0.5000
vt 0.0996 0.5000
vt 0.0996 0.5000
vt 0.0996 0.5000
vt 0.0996 0.5000
vt 0.0996 0.5000
vt 0.0527 0.5000
vt 0.0527 0.5000
vt 0.0527 0.5000
vt 0.0527 0.5000
vt 0.0527 0.5000
vt 0.0527 0.5000
vt 0.0527 0.5000
vt 0.0527 0.5000
vt 0.0996 0.5000
vt 0.0996 0.5000
vt 0.0996 0.5000
vt 0.0996 0.5000
vt 0.0527 0.5000
vt 0.0527 0.5000
vt 0.0527 0.5000
vt 0.0527 0.5000
vt 0.0527 0.5000
vt 0.0527 0.5000
vt 0.0527 0.5000
vt 0.0527 0.5000
vt 0.0996 0.5000
vt 0.0996 0.5000
vt 0.0996 0.5000
vt 0.0996 0.5000
vt 0.0527 0.5000
vt 0.0527 0.5000
vt 0.0527 0.5000
vt 0.0527 0.5000
vt 0.0996 0.5000
vt 0.0996 0.5000
vt 0.0996 0.5000
vt 0.0996 0.5000
vt 0.0527 0.5000
vt 0.0527 0.5000
vt 0.0527 0.5000
vt 0.0527 0.5000
vt 0.0527 0.5000
vt 0.0527 0.5000
vt 0.0527 0.5000
vt 0.0527 0.5000
vt 0.0527 0.5000
vt 0.0527 0.5000
vt 0.0527 0.5000
vt 0.0527 0.5000
vt 0.0996 0.5000
vt 0.0996 0.5000
vt 0.0996 0.5000
vt 0.0996 0.5000
vt 0.0527 0.5000
vt 0.0527 0.5000
vt 0.0527 0.5000
vt 0.0527 0.5000
vt 0.0527 0.5000
vt 0.0527 0.5000
vt 0.0527 0.5000
vt 0.0527 0.5000
vt 0.0527 0.5000
vt 0.0527 0.5000
vt 0.0527 0.5000
vt 0.0527 0.5000
vt 0.0527 0.5000
vt 0.0527 0.5000
vt 0.0527 0.5000
vt 0.0527 0.5000
vt 0.0527 0.5000
vt 0.0527 0.5000
vt 0.0527 0.5000
vt 0.0527 0.5000
vt 0.0527 0.5000
vt 0.0527 0.5000
vt 0.0527 0.5000
vt 0.0527 0.5000
vt 0.0527 0.5000
vt 0.0527 0.5000
vt 0.0527 0.5000
vt 0.0527 0.5000
vt 0.0527 0.5000
vt 0.0527 0.5000
vt 0.0527 0.5000
vt 0.0527 0.5000
vt 0.0527 0.5000
vt 0.0996 0.5000
vt 0.0996 0.5000
vt 0.0996 0.5000
vt 0.0996 0.5000
vt 0.0527 0.5000
vt 0.0527 0.5000
vt 0.0527 0.5000
vt 0.0527 0.5000
vt 0.0527 0.5000
vt 0.0527 0.5000
vt 0.0527 0.5000
vt 0.0527 0.5000
vt 0.0527 0.5000
vt 0.0527 0.5000
vt 0.0527 0.5000
vt 0.0527 0.5000
vt 0.0996 0.5000
vt 0.0996 0.5000
vt 0.0996 0.5000
vt 0.0996 0.5000
vt 0.0527 0.5000
vt 0.0527 0.5000
vt 0.0527 0.5000
vt 0.0527 0.5000
vt 0.0527 0.5000
vt 0.0527 0.5000
vt 0.0527 0.5000
vt 0.0527 0.5000
vt 0.0996 0.5000
vt 0.0996 0.5000
vt 0.0996 0.5000
vt 0.0996 0.5000
vt 0.0527 0.5000
vt 0.0527 0.5000
vt 0.0527 0.5000
vt 0.0527 0.5000
vt 0.0527 0.5000
vt 0.0527 0.5000
vt 0.0527 0.5000
vt 0.0527 0.5000
vt 0.0527 0.5000
vt 0.0527 0.5000
vt 0.0527 0.5000
vt 0.0527 0.5000
vt 0.0527 0.5000
vt 0.0527 0.5000
vt 0.0527 0.5000
vt 0.0527 0.5000
vt 0.0527 0.5000
vt 0.0527 0.5000
vt 0.0527 0.5000
vt 0.0527 0.5000
vt 0.0527 0.5000
vt 0.0527 0.5000
vt 0.0527 0.5000
vt 0.0527 0.5000
vt 0.0527 0.5000
vt 0.0527 0.5000
vt 0.0527 0.5000
vt 0.0527 0.5000
vt 0.0527 0.5000
vt 0.0527 0.5000
vt 0.0527 0.5000
vt 0.0527 0.5000
vt 0.0527 0.5000
vt 0.0527 0.5000
vt 0.0527 0.5000
vt 0.0527 0.5000
vt 0.0527 0.5000
vt 0.0527 0.5000
vt 0.0527 0.5000
vt 0.0527 0.5000
vt 0.0527 0.5000
vt 0.0527 0.5000
vt 0.0527 0.5000
vt 0.0527 0.5000
vt 0.0527 0.5000
vt 0.0527 0.5000
vt 0.0527 0.5000
vt 0.0527 0.5000
vt 0.0527 0.5000
vt 0.0527 0.5000
vt 0.0527 0.5000
vt 0.0527 0.5000
vt 0.0527 0.5000
vt 0.0527 0.5000
vt 0.0527 0.5000
vt 0.0527 0.5000
vt 0.0527 0.5000
vt 0.0527 0.5000
vt 0.0527 0.5000
vt 0.0527 0.5000
vt 0.0527 0.5000
vt 0.0527 0.5000
vt 0.0527 0.5000
vt 0.0527 0.5000
vt 0.0527 0.5000
vt 0.0996 0.5000
vt 0.0996 0.5000
vt 0.0996 0.5000
vt 0.0996 0.5000
vt 0.0996 0.5000
vt 0.0996 0.5000
vt 0.0996 0.5000
vt 0.0996 0.5000
vt 0.0996 0.5000
vt 0.0996 0.5000
vt 0.0996 0.5000
vt 0.0996 0.5000
vt 0.0488 0.5000
vt 0.0488 0.5000
vt 0.0488 0.5000
vt 0.0488 0.5000
vt 0.0488 0.5000
vt 0.0488 0.5000
vt 0.0488 0.5000
vt 0.0488 0.5000
vt 0.0488 0.5000
vt 0.0488 0.5000
vt 0.0488 0.5000
vt 0.0488 0.5000
vt 0.0488 0.5000
vt 0.0488 0.5000
vt 0.0488 0.5000
vt 0.0488 0.5000
vt 0.0488 0.5000
vt 0.0488 0.5000
vt 0.0488 0.5000
vt 0.0488 0.5000
vt 0.0488 0.5000
vt 0.0488 0.5000
vt 0.0488 0.5000
vt 0.0488 0.5000
vt 0.0488 0.5000
vt 0.0488 0.5000
vt 0.0488 0.5000
vt 0.0488 0.5000
vt 0.0488 0.5000
vt 0.0488 0.5000
vt 0.0488 0.5000
vt 0.0488 0.5000
vt 0.0488 0.5000
vt 0.0488 0.5000
vt 0.0488 0.5000
vt 0.0488 0.5000
vt 0.0488 0.5000
vt 0.0488 0.5000
vt 0.0488 0.5000
vt 0.0488 0.5000
vt 0.0488 0.5000
vt 0.0488 0.5000
vt 0.0488 0.5000
vt 0.0488 0.5000
vt 0.0488 0.5000
vt 0.0488 0.5000
vt 0.0488 0.5000
vt 0.0488 0.5000
vn -1.0000 -0.0000 0.0000
vn 1.0000 0.0000 0.0000
vn 0.0000 -0.0000 1.0000
vn 0.0000 0.0000 -1.0000
vn 0.0000 -1.0000 -0.0000
vn 0.0000 1.0000 0.0000
usemtl voxel
s 1
f 1/1/1 2/2/1 3/3/1
f 4/4/1 2/2/1 1/1/1
f 5/5/1 1/1/1 6/6/1
f 5/5/1 7/7/1 4/4/1
f 5/5/1 4/4/1 1/1/1
f 8/8/1 7/7/1 5/5/1
f 11/9/1 10/10/1 9/11/1
f 12/12/1 10/10/1 11/9/1
f 13/13/1 14/14/1 15/15/1
f 16/16/1 14/14/1 13/13/1
f 17/17/1 14/14/1 16/16/1
f 18/18/1 13/13/1 19/19/1
f 18/18/1 16/16/1 13/13/1
f 20/20/1 16/16/1 18/18/1
f 21/21/1 22/22/1 17/17/1
f 23/23/1 22/22/1 21/21/1
f 24/24/1 18/18/1 25/25/1
f 26/26/1 18/18/1 24/24/1
f 27/27/1 28/28/1 23/23/1
f 29/29/1 28/28/1 27/27/1
f 34/30/1 31/31/1 30/32/1
f 35/33/1 31/31/1 34/30/1
f 36/34/1 33/35/1 32/36/1
f 37/37/1 33/35/1 36/34/1
f 38/38/1 39/39/1 40/40/1
f 41/41/1 39/39/1 38/38/1
f 42/42/1 43/43/1 44/44/1
f 45/45/1 43/43/1 42/42/1
f 46/46/1 38/38/1 47/47/1
f 48/48/1 38/38/1 46/46/1
f 49/49/1 50/50/1 45/45/1
f 51/51/1 50/50/1 49/49/1
f 52/52/2 53/53/2 54/54/2
f 54/54/2 53/53/2 55/55/2
f 56/56/2 57/57/2 58/58/2
f 58/58/2 57/57/2 59/59/2
f 60/60/2 54/54/2 61/61/2
f 61/61/2 54/54/2 62/62/2
f 59/59/2 63/63/2 64/64/2
f 64/64/2 63/63/2 65/65/2
f 66/66/2 67/67/2 68/68/2
f 68/68/2 67/67/2 69/69/2
f 70/70/2 68/68/2 71/71/2
f 71/71/2 68/68/2 72/72/2
f 69/69/2 73/73/2 74/74/2
f 74/74/2 73/73/2 75/75/2
f 76/76/2 71/71/2 77/77/2
f 77/77/2 71/71/2 78/78/2
f 75/75/2 79/79/2 80/80/2
f 80/80/2 79/79/2 81/81/2
f 82/82/2 83/83/2 86/84/2
f 86/84/2 83/83/2 87/85/2
f 84/86/2 85/87/2 88/88/2
f 88/88/2 85/87/2 89/89/2
f 90/90/2 91/91/2 92/92/2
f 92/92/2 91/91/2 93/93/2
f 94/94/2 92/92/2 95/95/2
f 93/93/2 96/96/2 95/95/2
f 92/92/2 93/93/2 95/95/2
f 95/95/2 96/96/2 97/97/2
f 98/98/2 99/99/2 100/100/2
f 100/100/2 99/99/2 101/101/2
f 102/102/3 103/103/3 104/104/3
f 105/105/3 102/102/3 106/106/3
f 107/107/3 103/103/3 102/102/3
f 107/107/3 102/102/3 105/105/3
f 108/108/3 103/103/3 107/107/3
f 109/109/3 103/103/3 108/108/3
f 111/110/3 112/111/3 110/112/3
f 113/113/3 112/111/3 111/110/3
f 114/114/3 115/115/3 116/116/3
f 117/117/3 115/115/3 114/114/3
f 119/118/3 120/119/3 118/120/3
f 121/121/3 120/119/3 119/118/3
f 122/122/3 114/114/3 123/123/3
f 124/124/3 114/114/3 122/122/3
f 125/125/3 122/122/3 126/126/3
f 127/127/3 122/122/3 125/125/3
f 128/128/3 129/129/3 127/127/3
f 130/130/3 129/129/3 128/128/3
f 131/131/3 132/132/3 130/130/3
f 133/133/3 132/132/3 131/131/3
f 135/134/3 136/135/3 134/136/3
f 137/137/3 136/135/3 135/134/3
f 138/138/3 139/139/3 140/140/3
f 141/141/3 139/139/3 138/138/3
f 142/142/3 143/143/3 144/144/3
f 145/145/3 143/143/3 142/142/3
f 146/146/3 147/147/3 145/145/3
f 148/148/3 147/147/3 146/146/3
f 149/149/3 150/150/3 151/151/3
f 152/152/3 150/150/3 149/149/3
f 153/153/4 154/154/4 155/155/4
f 155/155/4 154/154/4 156/156/4
f 157/157/4 155/155/4 158/158/4
f 158/158/4 155/155/4 159/159/4
f 160/160/4 161/161/4 162/162/4
f 162/162/4 161/161/4 163/163/4
f 163/163/4 164/164/4 165/165/4
f 165/165/4 164/164/4 166/166/4
f 167/167/4 168/168/4 169/169/4
f 169/169/4 168/168/4 171/170/4
f 170/171/4 172/172/4 173/173/4
f 173/173/4 172/172/4 174/174/4
f 175/175/4 169/169/4 176/176/4
f 176/176/4 169/169/4 177/177/4
f 178/178/4 176/176/4 179/179/4
f 179/179/4 176/176/4 180/180/4
f 180/180/4 181/181/4 182/182/4
f 182/182/4 181/181/4 183/183/4
f 183/183/4 184/184/4 185/185/4
f 185/185/4 184/184/4 187/186/4
f 186/187/4 188/188/4 189/189/4
f 189/189/4 188/188/4 190/190/4
f 191/191/4 192/192/4 193/193/4
f 194/194/4 193/193/4 195/195/4
f 193/193/4 192/192/4 196/196/4
f 195/195/4 193/193/4 196/196/4
f 196/196/4 192/192/4 197/197/4
f 197/197/4 192/192/4 199/198/4
f 198/199/4 200/200/4 201/201/4
f 201/201/4 200/200/4 202/202/4
f 203/203/5 204/204/5 205/205/5
f 206/206/5 204/204/5 203/203/5
f 207/207/5 203/203/5 208/208/5
f 207/207/5 209/209/5 206/206/5
f 207/207/5 206/206/5 203/203/5
f 210/210/5 209/209/5 207/207/5
f 211/211/5 209/209/5 210/210/5
f 212/212/5 209/209/5 211/211/5
f 213/213/5 211/211/5 210/210/5
f 214/214/5 211/211/5 213/213/5
f 215/215/5 216/216/5 217/217/5
f 218/218/5 216/216/5 215/215/5
f 219/219/5 215/215/5 220/220/5
f 221/221/5 215/215/5 219/219/5
f 222/222/5 223/223/5 218/218/5
f 224/224/5 223/223/5 222/222/5
f 225/225/5 226/226/5 227/227/5
f 228/228/5 226/226/5 225/225/5
f 229/229/5 230/230/5 224/224/5
f 231/231/5 230/230/5 229/229/5
f 232/232/5 233/233/5 228/228/5
f 234/234/5 233/233/5 232/232/5
f 235/235/5 229/229/5 236/236/5
f 237/237/5 229/229/5 235/235/5
f 238/238/5 235/235/5 234/234/5
f 239/239/5 235/235/5 238/238/5
f 240/240/5 241/241/5 242/242/5
f 243/243/5 241/241/5 240/240/5
f 244/244/5 245/245/5 246/246/5
f 247/247/5 245/245/5 244/244/5
f 248/248/5 249/249/5 247/247/5
f 250/250/5 249/249/5 248/248/5
f 251/251/5 240/240/5 252/252/5
f 253/253/5 240/240/5 251/251/5
f 254/254/5 255/255/5 256/256/5
f 257/257/5 255/255/5 254/254/5
f 258/258/5 259/259/5 260/260/5
f 261/261/5 259/259/5 258/258/5
f 262/262/5 263/263/5 257/257/5
f 264/264/5 263/263/5 262/262/5
f 265/265/5 258/258/5 266/266/5
f 267/267/5 258/258/5 265/265/5
f 268/268/6 269/269/6 270/270/6
f 270/270/6 269/269/6 271/271/6
f 272/272/6 270/270/6 273/273/6
f 271/271/6 274/274/6 273/273/6
f 270/270/6 271/271/6 273/273/6
f 273/273/6 274/274/6 275/275/6
f 275/275/6 274/274/6 276/276/6
f 276/276/6 274/274/6 277/277/6
f 275/275/6 276/276/6 278/278/6
f 278/278/6 276/276/6 279/279/6
usemtl glass
f 9/280/1 8/281/1 5/282/1
f 10/283/1 8/281/1 9/280/1
f 30/284/1 26/285/1 24/286/1
f 31/287/1 26/285/1 30/284/1
f 32/288/1 29/289/1 27/290/1
f 33/291/1 29/289/1 32/288/1
f 77/292/2 78/293/2 82/294/2
f 82/294/2 78/293/2 83/295/2
f 80/296/2 81/297/2 84/298/2
f 84/298/2 81/297/2 85/299/2
f 95/300/2 97/301/2 98/302/2
f 98/302/2 97/301/2 99/303/2
f 109/304/3 110/305/3 103/306/3
f 111/307/3 110/305/3 109/304/3
f 117/308/3 118/309/3 115/310/3
f 119/311/3 118/309/3 117/308/3
f 133/312/3 134/313/3 132/314/3
f 135/315/3 134/313/3 133/312/3
f 168/316/4 170/317/4 171/318/4
f 171/318/4 170/317/4 173/319/4
f 184/320/4 186/321/4 187/322/4
f 187/322/4 186/321/4 189/323/4
f 192/324/4 198/325/4 199/326/4
f 199/326/4 198/325/4 201/327/4
