# MagicaVoxel @ Ephtracy

# material
mtllib sofa.mtl
usemtl palette

# normals
vn -1 0 0
vn 1 0 0
vn 0 0 1
vn 0 0 -1
vn 0 -1 0
vn 0 1 0

# texcoords
vt 0.0371094 0.5
vt 0.0878906 0.5
vt 0.0917969 0.5

# verts
v -10 0 5
v -10 0 3
v -10 0 -3
v -10 0 -5
v -10 1 3
v -10 1 -3
v -10 2 5
v -10 2 -5
v -10 6 5
v -10 6 -5
v -7 6 5
v -7 6 1
v -7 9 5
v -7 9 1
v -6 2 -4
v -6 2 -5
v -6 3 -4
v -6 3 -5
v -6 9 5
v -6 9 1
v -6 10 5
v -6 10 1
v 1 2 3
v 1 2 -4
v 1 3 1
v 1 3 -4
v 1 9 2
v 1 9 1
v 1 10 3
v 1 10 2
v 2 2 -4
v 2 2 -5
v 2 3 -4
v 2 3 -5
v 2 9 2
v 2 9 1
v 2 10 2
v 2 10 1
v 7 2 -4
v 7 2 -5
v 7 3 1
v 7 3 -4
v 7 6 1
v 7 6 -5
v 8 0 5
v 8 0 4
v 8 0 3
v 8 0 -3
v 8 0 -4
v 8 0 -5
v 8 1 5
v 8 1 4
v 8 1 3
v 8 1 -3
v 8 1 -4
v 8 1 -5
v -8 0 5
v -8 0 4
v -8 0 3
v -8 0 -3
v -8 0 -4
v -8 0 -5
v -8 1 5
v -8 1 4
v -8 1 3
v -8 1 -3
v -8 1 -4
v -8 1 -5
v -7 2 -4
v -7 2 -5
v -7 3 1
v -7 3 -4
v -7 6 1
v -7 6 -5
v -2 2 -4
v -2 2 -5
v -2 3 -4
v -2 3 -5
v -2 9 2
v -2 9 1
v -2 10 2
v -2 10 1
v -1 2 3
v -1 2 -4
v -1 3 1
v -1 3 -4
v -1 9 2
v -1 9 1
v -1 10 3
v -1 10 2
v 6 2 -4
v 6 2 -5
v 6 3 -4
v 6 3 -5
v 6 9 5
v 6 9 1
v 6 10 5
v 6 10 1
v 7 6 5
v 7 6 1
v 7 9 5
v 7 9 1
v 10 0 5
v 10 0 3
v 10 0 -3
v 10 0 -5
v 10 1 3
v 10 1 -3
v 10 2 5
v 10 2 -5
v 10 6 5
v 10 6 -5
v -10 0 5
v -10 2 5
v -10 6 5
v -8 0 5
v -8 1 5
v -7 6 5
v -7 9 5
v -6 9 5
v -6 10 5
v 6 9 5
v 6 10 5
v 7 6 5
v 7 9 5
v 8 0 5
v 8 1 5
v 10 0 5
v 10 2 5
v 10 6 5
v -10 0 -3
v -10 1 -3
v -9 0 -3
v -9 1 -3
v -8 0 -3
v -8 1 -3
v 8 0 -3
v 8 1 -3
v 9 0 -3
v 9 1 -3
v 10 0 -3
v 10 1 -3
v -10 0 3
v -10 1 3
v -9 0 3
v -9 1 3
v -8 0 3
v -8 1 3
v -1 2 3
v -1 10 3
v 1 2 3
v 1 10 3
v 8 0 3
v 8 1 3
v 9 0 3
v 9 1 3
v 10 0 3
v 10 1 3
v -2 9 2
v -2 10 2
v -1 9 2
v -1 10 2
v 1 9 2
v 1 10 2
v 2 9 2
v 2 10 2
v -7 3 1
v -7 6 1
v -7 9 1
v -6 9 1
v -6 10 1
v -2 9 1
v -2 10 1
v -1 3 1
v -1 9 1
v 1 3 1
v 1 9 1
v 2 9 1
v 2 10 1
v 6 9 1
v 6 10 1
v 7 3 1
v 7 6 1
v 7 9 1
v -7 2 -4
v -7 3 -4
v -6 2 -4
v -6 3 -4
v -2 2 -4
v -2 3 -4
v -1 2 -4
v -1 3 -4
v 1 2 -4
v 1 3 -4
v 2 2 -4
v 2 3 -4
v 6 2 -4
v 6 3 -4
v 7 2 -4
v 7 3 -4
v -10 0 -5
v -10 2 -5
v -10 6 -5
v -8 0 -5
v -8 1 -5
v -7 2 -5
v -7 6 -5
v -6 2 -5
v -6 3 -5
v -2 2 -5
v -2 3 -5
v 2 2 -5
v 2 3 -5
v 6 2 -5
v 6 3 -5
v 7 2 -5
v 7 6 -5
v 8 0 -5
v 8 1 -5
v 10 0 -5
v 10 2 -5
v 10 6 -5
v -10 0 5
v -8 0 5
v 8 0 5
v 10 0 5
v -9 0 4
v -8 0 4
v 8 0 4
v 9 0 4
v -10 0 3
v -9 0 3
v -8 0 3
v 8 0 3
v 9 0 3
v 10 0 3
v -10 0 -3
v -9 0 -3
v -8 0 -3
v 8 0 -3
v 9 0 -3
v 10 0 -3
v -9 0 -4
v -8 0 -4
v 8 0 -4
v 9 0 -4
v -10 0 -5
v -8 0 -5
v 8 0 -5
v 10 0 -5
v -8 1 5
v 8 1 5
v -8 1 4
v 8 1 4
v -10 1 3
v -9 1 3
v -8 1 3
v 8 1 3
v 9 1 3
v 10 1 3
v -10 1 -3
v -9 1 -3
v -8 1 -3
v 8 1 -3
v 9 1 -3
v 10 1 -3
v -8 1 -4
v 8 1 -4
v -8 1 -5
v 8 1 -5
v -1 2 3
v 1 2 3
v -7 2 -4
v -6 2 -4
v -2 2 -4
v -1 2 -4
v 1 2 -4
v 2 2 -4
v 6 2 -4
v 7 2 -4
v -7 2 -5
v -6 2 -5
v -2 2 -5
v 2 2 -5
v 6 2 -5
v 7 2 -5
v -7 3 1
v -1 3 1
v 1 3 1
v 7 3 1
v -7 3 -4
v -6 3 -4
v -2 3 -4
v -1 3 -4
v 1 3 -4
v 2 3 -4
v 6 3 -4
v 7 3 -4
v -6 3 -5
v -2 3 -5
v 2 3 -5
v 6 3 -5
v -10 6 5
v -7 6 5
v 7 6 5
v 10 6 5
v -7 6 1
v 7 6 1
v -10 6 -5
v -7 6 -5
v 7 6 -5
v 10 6 -5
v -7 9 5
v -6 9 5
v 6 9 5
v 7 9 5
v -2 9 2
v -1 9 2
v 1 9 2
v 2 9 2
v -7 9 1
v -6 9 1
v -2 9 1
v -1 9 1
v 1 9 1
v 2 9 1
v 6 9 1
v 7 9 1
v -6 10 5
v 6 10 5
v -1 10 3
v 1 10 3
v -2 10 2
v -1 10 2
v 1 10 2
v 2 10 2
v -6 10 1
v -2 10 1
v 2 10 1
v 6 10 1

# faces
f 5/3/1 2/3/1 1/3/1
f 6/3/1 4/3/1 3/3/1
f 7/3/1 5/3/1 1/3/1
f 7/3/1 6/3/1 5/3/1
f 8/3/1 4/3/1 6/3/1
f 8/3/1 6/3/1 7/3/1
f 9/1/1 8/1/1 7/1/1
f 10/1/1 8/1/1 9/1/1
f 13/1/1 12/1/1 11/1/1
f 14/1/1 12/1/1 13/1/1
f 17/1/1 16/1/1 15/1/1
f 18/1/1 16/1/1 17/1/1
f 21/1/1 20/1/1 19/1/1
f 22/1/1 20/1/1 21/1/1
f 25/1/1 24/1/1 23/1/1
f 26/1/1 24/1/1 25/1/1
f 27/1/1 25/1/1 23/1/1
f 28/1/1 25/1/1 27/1/1
f 29/1/1 27/1/1 23/1/1
f 30/1/1 27/1/1 29/1/1
f 33/1/1 32/1/1 31/1/1
f 34/1/1 32/1/1 33/1/1
f 37/1/1 36/1/1 35/1/1
f 38/1/1 36/1/1 37/1/1
f 42/1/1 40/1/1 39/1/1
f 43/1/1 42/1/1 41/1/1
f 44/1/1 40/1/1 42/1/1
f 44/1/1 42/1/1 43/1/1
f 51/3/1 46/3/1 45/3/1
f 52/2/1 47/2/1 46/2/1
f 52/3/1 46/3/1 51/3/1
f 53/2/1 47/2/1 52/2/1
f 54/2/1 49/2/1 48/2/1
f 55/3/1 50/3/1 49/3/1
f 55/2/1 49/2/1 54/2/1
f 56/3/1 50/3/1 55/3/1
f 57/3/2 58/3/2 63/3/2
f 58/2/2 59/2/2 64/2/2
f 63/3/2 58/3/2 64/3/2
f 64/2/2 59/2/2 65/2/2
f 60/2/2 61/2/2 66/2/2
f 61/3/2 62/3/2 67/3/2
f 66/2/2 61/2/2 67/2/2
f 67/3/2 62/3/2 68/3/2
f 69/1/2 70/1/2 72/1/2
f 71/1/2 72/1/2 73/1/2
f 72/1/2 70/1/2 74/1/2
f 73/1/2 72/1/2 74/1/2
f 75/1/2 76/1/2 77/1/2
f 77/1/2 76/1/2 78/1/2
f 79/1/2 80/1/2 81/1/2
f 81/1/2 80/1/2 82/1/2
f 83/1/2 84/1/2 85/1/2
f 85/1/2 84/1/2 86/1/2
f 83/1/2 85/1/2 87/1/2
f 87/1/2 85/1/2 88/1/2
f 83/1/2 87/1/2 89/1/2
f 89/1/2 87/1/2 90/1/2
f 91/1/2 92/1/2 93/1/2
f 93/1/2 92/1/2 94/1/2
f 95/1/2 96/1/2 97/1/2
f 97/1/2 96/1/2 98/1/2
f 99/1/2 100/1/2 101/1/2
f 101/1/2 100/1/2 102/1/2
f 103/3/2 104/3/2 107/3/2
f 105/3/2 106/3/2 108/3/2
f 103/3/2 107/3/2 109/3/2
f 107/3/2 108/3/2 109/3/2
f 108/3/2 106/3/2 110/3/2
f 109/3/2 108/3/2 110/3/2
f 109/1/2 110/1/2 111/1/2
f 111/1/2 110/1/2 112/1/2
f 116/3/3 114/3/3 113/3/3
f 117/3/3 114/3/3 116/3/3
f 118/1/3 115/1/3 114/1/3
f 120/1/3 119/1/3 118/1/3
f 122/1/3 120/1/3 118/1/3
f 122/1/3 121/1/3 120/1/3
f 123/1/3 121/1/3 122/1/3
f 124/1/3 118/1/3 114/1/3
f 124/1/3 122/1/3 118/1/3
f 125/1/3 122/1/3 124/1/3
f 127/3/3 114/3/3 117/3/3
f 128/3/3 127/3/3 126/3/3
f 129/1/3 124/1/3 114/1/3
f 129/3/3 127/3/3 128/3/3
f 129/3/3 114/3/3 127/3/3
f 130/1/3 124/1/3 129/1/3
f 133/3/3 132/3/3 131/3/3
f 134/3/3 132/3/3 133/3/3
f 135/2/3 134/2/3 133/2/3
f 136/2/3 134/2/3 135/2/3
f 139/2/3 138/2/3 137/2/3
f 140/2/3 138/2/3 139/2/3
f 141/3/3 140/3/3 139/3/3
f 142/3/3 140/3/3 141/3/3
f 143/3/4 144/3/4 145/3/4
f 145/3/4 144/3/4 146/3/4
f 145/2/4 146/2/4 147/2/4
f 147/2/4 146/2/4 148/2/4
f 149/1/4 150/1/4 151/1/4
f 151/1/4 150/1/4 152/1/4
f 153/2/4 154/2/4 155/2/4
f 155/2/4 154/2/4 156/2/4
f 155/3/4 156/3/4 157/3/4
f 157/3/4 156/3/4 158/3/4
f 159/1/4 160/1/4 161/1/4
f 161/1/4 160/1/4 162/1/4
f 163/1/4 164/1/4 165/1/4
f 165/1/4 164/1/4 166/1/4
f 167/1/4 168/1/4 170/1/4
f 168/1/4 169/1/4 170/1/4
f 167/1/4 170/1/4 172/1/4
f 170/1/4 171/1/4 172/1/4
f 172/1/4 171/1/4 173/1/4
f 167/1/4 172/1/4 174/1/4
f 174/1/4 172/1/4 175/1/4
f 176/1/4 177/1/4 178/1/4
f 176/1/4 178/1/4 180/1/4
f 178/1/4 179/1/4 180/1/4
f 180/1/4 179/1/4 181/1/4
f 176/1/4 180/1/4 182/1/4
f 182/1/4 180/1/4 183/1/4
f 183/1/4 180/1/4 184/1/4
f 185/1/4 186/1/4 187/1/4
f 187/1/4 186/1/4 188/1/4
f 189/1/4 190/1/4 191/1/4
f 191/1/4 190/1/4 192/1/4
f 193/1/4 194/1/4 195/1/4
f 195/1/4 194/1/4 196/1/4
f 197/1/4 198/1/4 199/1/4
f 199/1/4 198/1/4 200/1/4
f 201/3/4 202/3/4 204/3/4
f 204/3/4 202/3/4 205/3/4
f 202/1/4 203/1/4 206/1/4
f 205/3/4 202/3/4 206/3/4
f 206/1/4 203/1/4 207/1/4
f 205/3/4 206/3/4 208/3/4
f 205/3/4 208/3/4 210/3/4
f 208/1/4 209/1/4 210/1/4
f 210/1/4 209/1/4 211/1/4
f 205/3/4 210/3/4 212/3/4
f 205/3/4 212/3/4 214/3/4
f 212/1/4 213/1/4 214/1/4
f 214/1/4 213/1/4 215/1/4
f 205/3/4 214/3/4 216/3/4
f 205/3/4 216/3/4 219/3/4
f 218/3/4 219/3/4 220/3/4
f 216/1/4 217/1/4 221/1/4
f 220/3/4 219/3/4 221/3/4
f 219/3/4 216/3/4 221/3/4
f 221/1/4 217/1/4 222/1/4
f 227/3/5 224/3/5 223/3/5
f 228/3/5 224/3/5 227/3/5
f 229/3/5 226/3/5 225/3/5
f 230/3/5 226/3/5 229/3/5
f 231/3/5 227/3/5 223/3/5
f 232/2/5 228/2/5 227/2/5
f 232/3/5 227/3/5 231/3/5
f 233/2/5 228/2/5 232/2/5
f 234/2/5 230/2/5 229/2/5
f 235/3/5 226/3/5 230/3/5
f 235/2/5 230/2/5 234/2/5
f 236/3/5 226/3/5 235/3/5
f 243/3/5 238/3/5 237/3/5
f 243/2/5 239/2/5 238/2/5
f 244/2/5 239/2/5 243/2/5
f 245/2/5 241/2/5 240/2/5
f 246/3/5 242/3/5 241/3/5
f 246/2/5 241/2/5 245/2/5
f 247/3/5 244/3/5 243/3/5
f 247/3/5 243/3/5 237/3/5
f 248/3/5 244/3/5 247/3/5
f 249/3/5 246/3/5 245/3/5
f 250/3/5 242/3/5 246/3/5
f 250/3/5 246/3/5 249/3/5
f 253/3/5 252/3/5 251/3/5
f 254/3/5 252/3/5 253/3/5
f 257/1/5 254/1/5 253/1/5
f 258/1/5 254/1/5 257/1/5
f 261/3/5 256/3/5 255/3/5
f 262/1/5 258/1/5 257/1/5
f 262/3/5 256/3/5 261/3/5
f 262/1/5 257/1/5 256/1/5
f 262/1/5 259/1/5 258/1/5
f 263/1/5 259/1/5 262/1/5
f 264/1/5 259/1/5 263/1/5
f 265/3/5 260/3/5 259/3/5
f 265/1/5 259/1/5 264/1/5
f 266/3/5 260/3/5 265/3/5
f 267/1/5 264/1/5 263/1/5
f 268/1/5 264/1/5 267/1/5
f 269/3/5 268/3/5 267/3/5
f 270/3/5 268/3/5 269/3/5
f 271/1/6 272/1/6 276/1/6
f 276/1/6 272/1/6 277/1/6
f 273/3/6 274/3/6 281/3/6
f 281/3/6 274/3/6 282/3/6
f 275/3/6 276/3/6 283/3/6
f 276/3/6 277/3/6 283/3/6
f 277/3/6 278/3/6 283/3/6
f 283/3/6 278/3/6 284/3/6
f 279/3/6 280/3/6 285/3/6
f 285/3/6 280/3/6 286/3/6
f 287/1/6 288/1/6 291/1/6
f 291/1/6 288/1/6 292/1/6
f 292/1/6 288/1/6 293/1/6
f 293/1/6 288/1/6 294/1/6
f 289/1/6 290/1/6 295/1/6
f 295/1/6 290/1/6 296/1/6
f 296/1/6 290/1/6 297/1/6
f 297/1/6 290/1/6 298/1/6
f 292/1/6 293/1/6 299/1/6
f 299/1/6 293/1/6 300/1/6
f 296/1/6 297/1/6 301/1/6
f 301/1/6 297/1/6 302/1/6
f 303/1/6 304/1/6 307/1/6
f 305/1/6 306/1/6 308/1/6
f 303/1/6 307/1/6 309/1/6
f 309/1/6 307/1/6 310/1/6
f 308/1/6 306/1/6 311/1/6
f 311/1/6 306/1/6 312/1/6
f 313/1/6 314/1/6 321/1/6
f 321/1/6 314/1/6 322/1/6
f 317/1/6 318/1/6 323/1/6
f 323/1/6 318/1/6 324/1/6
f 319/1/6 320/1/6 325/1/6
f 325/1/6 320/1/6 326/1/6
f 315/1/6 316/1/6 327/1/6
f 327/1/6 316/1/6 328/1/6
f 329/1/6 330/1/6 331/1/6
f 331/1/6 330/1/6 332/1/6
f 329/1/6 331/1/6 333/1/6
f 333/1/6 331/1/6 334/1/6
f 332/1/6 330/1/6 335/1/6
f 335/1/6 330/1/6 336/1/6
f 329/1/6 333/1/6 337/1/6
f 337/1/6 333/1/6 338/1/6
f 336/1/6 330/1/6 339/1/6
f 339/1/6 330/1/6 340/1/6
