# MagicaVoxel @ Ephtracy

# material
mtllib vase.mtl
usemtl palette

# normals
vn -1 0 0
vn 1 0 0
vn 0 0 1
vn 0 0 -1
vn 0 -1 0
vn 0 1 0

# texcoords
vt 0.0800781 0.5
vt 0.0839844 0.5
vt 0.107422 0.5

# verts
v -4 5 5
v -4 5 -0
v -4 7 5
v -4 7 -0
v -3 3 4
v -3 3 1
v -3 5 6
v -3 5 5
v -3 5 4
v -3 5 1
v -3 5 -0
v -3 5 -1
v -3 7 6
v -3 7 5
v -3 7 -0
v -3 7 -1
v -2 1 4
v -2 1 1
v -2 3 5
v -2 3 4
v -2 3 1
v -2 3 -0
v -2 5 7
v -2 5 6
v -2 5 5
v -2 5 4
v -2 5 1
v -2 5 -0
v -2 5 -1
v -2 5 -2
v -2 7 7
v -2 7 6
v -2 7 -1
v -2 7 -2
v -1 0 4
v -1 0 1
v -1 1 5
v -1 1 4
v -1 1 1
v -1 1 -0
v -1 3 6
v -1 3 5
v -1 3 4
v -1 3 1
v -1 3 -0
v -1 3 -1
v -1 5 6
v -1 5 5
v -1 5 -0
v -1 5 -1
v 2 6 6
v 2 6 5
v 2 6 -0
v 2 6 -1
v 2 7 6
v 2 7 5
v 2 7 -0
v 2 7 -1
v 3 6 5
v 3 6 4
v 3 6 1
v 3 6 -0
v 3 7 5
v 3 7 4
v 3 7 1
v 3 7 -0
v 4 6 4
v 4 6 3
v 4 6 2
v 4 6 1
v 4 7 4
v 4 7 1
v -3 6 4
v -3 6 3
v -3 6 2
v -3 6 1
v -3 7 4
v -3 7 1
v -2 6 5
v -2 6 4
v -2 6 1
v -2 6 -0
v -2 7 5
v -2 7 4
v -2 7 1
v -2 7 -0
v -1 6 6
v -1 6 5
v -1 6 -0
v -1 6 -1
v -1 7 6
v -1 7 5
v -1 7 -0
v -1 7 -1
v 2 0 4
v 2 0 1
v 2 1 5
v 2 1 4
v 2 1 1
v 2 1 -0
v 2 3 6
v 2 3 5
v 2 3 4
v 2 3 1
v 2 3 -0
v 2 3 -1
v 2 5 6
v 2 5 5
v 2 5 -0
v 2 5 -1
v 3 1 4
v 3 1 1
v 3 3 5
v 3 3 4
v 3 3 1
v 3 3 -0
v 3 5 7
v 3 5 6
v 3 5 5
v 3 5 4
v 3 5 1
v 3 5 -0
v 3 5 -1
v 3 5 -2
v 3 7 7
v 3 7 6
v 3 7 -1
v 3 7 -2
v 4 3 4
v 4 3 1
v 4 5 6
v 4 5 5
v 4 5 4
v 4 5 1
v 4 5 -0
v 4 5 -1
v 4 7 6
v 4 7 5
v 4 7 -0
v 4 7 -1
v 5 5 5
v 5 5 -0
v 5 7 5
v 5 7 -0
v -2 5 7
v -2 7 7
v 3 5 7
v 3 7 7
v -3 5 6
v -3 7 6
v -2 5 6
v -2 7 6
v -1 3 6
v -1 5 6
v 2 3 6
v 2 5 6
v 3 5 6
v 3 7 6
v 4 5 6
v 4 7 6
v -4 5 5
v -4 7 5
v -3 5 5
v -3 7 5
v -2 3 5
v -2 5 5
v -1 1 5
v -1 3 5
v -1 5 5
v 2 1 5
v 2 3 5
v 2 5 5
v 3 3 5
v 3 5 5
v 4 5 5
v 4 7 5
v 5 5 5
v 5 7 5
v -3 3 4
v -3 5 4
v -2 1 4
v -2 3 4
v -2 5 4
v -1 0 4
v -1 1 4
v -1 3 4
v 2 0 4
v 2 1 4
v 2 3 4
v 3 1 4
v 3 3 4
v 3 5 4
v 4 3 4
v 4 5 4
v -3 6 1
v -3 7 1
v -2 6 1
v -2 7 1
v 3 6 1
v 3 7 1
v 4 6 1
v 4 7 1
v -2 6 -0
v -2 7 -0
v -1 6 -0
v -1 7 -0
v 2 6 -0
v 2 7 -0
v 3 6 -0
v 3 7 -0
v -1 6 -1
v -1 7 -1
v 0 6 -1
v 1 6 -1
v 2 6 -1
v 2 7 -1
v -1 6 6
v -1 7 6
v 0 6 6
v 1 6 6
v 2 6 6
v 2 7 6
v -2 6 5
v -2 7 5
v -1 6 5
v -1 7 5
v 2 6 5
v 2 7 5
v 3 6 5
v 3 7 5
v -3 6 4
v -3 7 4
v -2 6 4
v -2 7 4
v 3 6 4
v 3 7 4
v 4 6 4
v 4 7 4
v -3 3 1
v -3 5 1
v -2 1 1
v -2 3 1
v -2 5 1
v -1 0 1
v -1 1 1
v -1 3 1
v 2 0 1
v 2 1 1
v 2 3 1
v 3 1 1
v 3 3 1
v 3 5 1
v 4 3 1
v 4 5 1
v -4 5 -0
v -4 7 -0
v -3 5 -0
v -3 7 -0
v -2 3 -0
v -2 5 -0
v -1 1 -0
v -1 3 -0
v -1 5 -0
v 2 1 -0
v 2 3 -0
v 2 5 -0
v 3 3 -0
v 3 5 -0
v 4 5 -0
v 4 7 -0
v 5 5 -0
v 5 7 -0
v -3 5 -1
v -3 7 -1
v -2 5 -1
v -2 7 -1
v -1 3 -1
v -1 5 -1
v 2 3 -1
v 2 5 -1
v 3 5 -1
v 3 7 -1
v 4 5 -1
v 4 7 -1
v -2 5 -2
v -2 7 -2
v 3 5 -2
v 3 7 -2
v -1 0 4
v 2 0 4
v -1 0 1
v 2 0 1
v -1 1 5
v 2 1 5
v -2 1 4
v -1 1 4
v 2 1 4
v 3 1 4
v -2 1 1
v -1 1 1
v 2 1 1
v 3 1 1
v -1 1 -0
v 2 1 -0
v -1 3 6
v 2 3 6
v -2 3 5
v -1 3 5
v 2 3 5
v 3 3 5
v -3 3 4
v -2 3 4
v -1 3 4
v 2 3 4
v 3 3 4
v 4 3 4
v -3 3 1
v -2 3 1
v -1 3 1
v 2 3 1
v 3 3 1
v 4 3 1
v -2 3 -0
v -1 3 -0
v 2 3 -0
v 3 3 -0
v -1 3 -1
v 2 3 -1
v -2 5 7
v 3 5 7
v -3 5 6
v -2 5 6
v -1 5 6
v 2 5 6
v 3 5 6
v 4 5 6
v -4 5 5
v -3 5 5
v -2 5 5
v -1 5 5
v 2 5 5
v 3 5 5
v 4 5 5
v 5 5 5
v -3 5 4
v -2 5 4
v 3 5 4
v 4 5 4
v -3 5 1
v -2 5 1
v 3 5 1
v 4 5 1
v -4 5 -0
v -3 5 -0
v -2 5 -0
v -1 5 -0
v 2 5 -0
v 3 5 -0
v 4 5 -0
v 5 5 -0
v -3 5 -1
v -2 5 -1
v -1 5 -1
v 2 5 -1
v 3 5 -1
v 4 5 -1
v -2 5 -2
v 3 5 -2
v -1 6 6
v 0 6 6
v 1 6 6
v 2 6 6
v -2 6 5
v -1 6 5
v 0 6 5
v 1 6 5
v 2 6 5
v 3 6 5
v -3 6 4
v -2 6 4
v -1 6 4
v 0 6 4
v 1 6 4
v 2 6 4
v 3 6 4
v 4 6 4
v -3 6 3
v -2 6 3
v -1 6 3
v 0 6 3
v 1 6 3
v 2 6 3
v 3 6 3
v 4 6 3
v -3 6 2
v -2 6 2
v -1 6 2
v 0 6 2
v 1 6 2
v 2 6 2
v 3 6 2
v 4 6 2
v -3 6 1
v -2 6 1
v -1 6 1
v 0 6 1
v 1 6 1
v 2 6 1
v 3 6 1
v 4 6 1
v -2 6 -0
v -1 6 -0
v 0 6 -0
v 1 6 -0
v 2 6 -0
v 3 6 -0
v -1 6 -1
v 0 6 -1
v 1 6 -1
v 2 6 -1
v -2 7 7
v 3 7 7
v -3 7 6
v -2 7 6
v -1 7 6
v 2 7 6
v 3 7 6
v 4 7 6
v -4 7 5
v -3 7 5
v -2 7 5
v -1 7 5
v 2 7 5
v 3 7 5
v 4 7 5
v 5 7 5
v -3 7 4
v -2 7 4
v 3 7 4
v 4 7 4
v -3 7 1
v -2 7 1
v 3 7 1
v 4 7 1
v -4 7 -0
v -3 7 -0
v -2 7 -0
v -1 7 -0
v 2 7 -0
v 3 7 -0
v 4 7 -0
v 5 7 -0
v -3 7 -1
v -2 7 -1
v -1 7 -1
v 2 7 -1
v 3 7 -1
v 4 7 -1
v -2 7 -2
v 3 7 -2

# faces
f 3/3/1 2/3/1 1/3/1
f 4/3/1 2/3/1 3/3/1
f 9/3/1 6/3/1 5/3/1
f 10/3/1 6/3/1 9/3/1
f 13/3/1 8/3/1 7/3/1
f 14/3/1 8/3/1 13/3/1
f 15/3/1 12/3/1 11/3/1
f 16/3/1 12/3/1 15/3/1
f 20/3/1 18/3/1 17/3/1
f 21/3/1 18/3/1 20/3/1
f 25/3/1 20/3/1 19/3/1
f 26/3/1 20/3/1 25/3/1
f 27/3/1 22/3/1 21/3/1
f 28/3/1 22/3/1 27/3/1
f 31/3/1 24/3/1 23/3/1
f 32/3/1 24/3/1 31/3/1
f 33/3/1 30/3/1 29/3/1
f 34/3/1 30/3/1 33/3/1
f 38/3/1 36/3/1 35/3/1
f 39/3/1 36/3/1 38/3/1
f 42/3/1 38/3/1 37/3/1
f 43/3/1 38/3/1 42/3/1
f 44/3/1 40/3/1 39/3/1
f 45/3/1 40/3/1 44/3/1
f 47/3/1 42/3/1 41/3/1
f 48/3/1 42/3/1 47/3/1
f 49/3/1 46/3/1 45/3/1
f 50/3/1 46/3/1 49/3/1
f 55/3/1 52/3/1 51/3/1
f 56/3/1 52/3/1 55/3/1
f 57/3/1 54/3/1 53/3/1
f 58/3/1 54/3/1 57/3/1
f 63/3/1 60/3/1 59/3/1
f 64/3/1 60/3/1 63/3/1
f 65/3/1 62/3/1 61/3/1
f 66/3/1 62/3/1 65/3/1
f 71/3/1 68/3/1 67/3/1
f 71/3/1 70/3/1 69/3/1
f 71/3/1 69/3/1 68/3/1
f 72/3/1 70/3/1 71/3/1
f 73/3/2 74/3/2 77/3/2
f 75/3/2 76/3/2 77/3/2
f 74/3/2 75/3/2 77/3/2
f 77/3/2 76/3/2 78/3/2
f 79/3/2 80/3/2 83/3/2
f 83/3/2 80/3/2 84/3/2
f 81/3/2 82/3/2 85/3/2
f 85/3/2 82/3/2 86/3/2
f 87/3/2 88/3/2 91/3/2
f 91/3/2 88/3/2 92/3/2
f 89/3/2 90/3/2 93/3/2
f 93/3/2 90/3/2 94/3/2
f 95/3/2 96/3/2 98/3/2
f 98/3/2 96/3/2 99/3/2
f 97/3/2 98/3/2 102/3/2
f 102/3/2 98/3/2 103/3/2
f 99/3/2 100/3/2 104/3/2
f 104/3/2 100/3/2 105/3/2
f 101/3/2 102/3/2 107/3/2
f 107/3/2 102/3/2 108/3/2
f 105/3/2 106/3/2 109/3/2
f 109/3/2 106/3/2 110/3/2
f 111/3/2 112/3/2 114/3/2
f 114/3/2 112/3/2 115/3/2
f 113/3/2 114/3/2 119/3/2
f 119/3/2 114/3/2 120/3/2
f 115/3/2 116/3/2 121/3/2
f 121/3/2 116/3/2 122/3/2
f 117/3/2 118/3/2 125/3/2
f 125/3/2 118/3/2 126/3/2
f 123/3/2 124/3/2 127/3/2
f 127/3/2 124/3/2 128/3/2
f 129/3/2 130/3/2 133/3/2
f 133/3/2 130/3/2 134/3/2
f 131/3/2 132/3/2 137/3/2
f 137/3/2 132/3/2 138/3/2
f 135/3/2 136/3/2 139/3/2
f 139/3/2 136/3/2 140/3/2
f 141/3/2 142/3/2 143/3/2
f 143/3/2 142/3/2 144/3/2
f 147/3/3 146/3/3 145/3/3
f 148/3/3 146/3/3 147/3/3
f 151/3/3 150/3/3 149/3/3
f 152/3/3 150/3/3 151/3/3
f 155/3/3 154/3/3 153/3/3
f 156/3/3 154/3/3 155/3/3
f 159/3/3 158/3/3 157/3/3
f 160/3/3 158/3/3 159/3/3
f 163/3/3 162/3/3 161/3/3
f 164/3/3 162/3/3 163/3/3
f 168/3/3 166/3/3 165/3/3
f 169/3/3 166/3/3 168/3/3
f 170/3/3 168/3/3 167/3/3
f 171/3/3 168/3/3 170/3/3
f 173/3/3 172/3/3 171/3/3
f 174/3/3 172/3/3 173/3/3
f 177/3/3 176/3/3 175/3/3
f 178/3/3 176/3/3 177/3/3
f 182/3/3 180/3/3 179/3/3
f 183/3/3 180/3/3 182/3/3
f 185/3/3 182/3/3 181/3/3
f 186/3/3 182/3/3 185/3/3
f 187/3/3 185/3/3 184/3/3
f 188/3/3 185/3/3 187/3/3
f 190/3/3 189/3/3 188/3/3
f 191/3/3 189/3/3 190/3/3
f 193/3/3 192/3/3 191/3/3
f 194/3/3 192/3/3 193/3/3
f 197/3/3 196/3/3 195/3/3
f 198/3/3 196/3/3 197/3/3
f 201/3/3 200/3/3 199/3/3
f 202/3/3 200/3/3 201/3/3
f 205/3/3 204/3/3 203/3/3
f 206/3/3 204/3/3 205/3/3
f 209/3/3 208/3/3 207/3/3
f 210/3/3 208/3/3 209/3/3
f 213/3/3 212/3/3 211/3/3
f 214/3/3 212/3/3 213/3/3
f 215/3/3 212/3/3 214/3/3
f 216/3/3 212/3/3 215/3/3
f 217/3/4 218/3/4 219/3/4
f 219/3/4 218/3/4 220/3/4
f 220/3/4 218/3/4 221/3/4
f 221/3/4 218/3/4 222/3/4
f 223/3/4 224/3/4 225/3/4
f 225/3/4 224/3/4 226/3/4
f 227/3/4 228/3/4 229/3/4
f 229/3/4 228/3/4 230/3/4
f 231/3/4 232/3/4 233/3/4
f 233/3/4 232/3/4 234/3/4
f 235/3/4 236/3/4 237/3/4
f 237/3/4 236/3/4 238/3/4
f 239/3/4 240/3/4 242/3/4
f 242/3/4 240/3/4 243/3/4
f 241/3/4 242/3/4 245/3/4
f 245/3/4 242/3/4 246/3/4
f 244/3/4 245/3/4 247/3/4
f 247/3/4 245/3/4 248/3/4
f 248/3/4 249/3/4 250/3/4
f 250/3/4 249/3/4 251/3/4
f 251/3/4 252/3/4 253/3/4
f 253/3/4 252/3/4 254/3/4
f 255/3/4 256/3/4 257/3/4
f 257/3/4 256/3/4 258/3/4
f 259/3/4 260/3/4 262/3/4
f 262/3/4 260/3/4 263/3/4
f 261/3/4 262/3/4 264/3/4
f 264/3/4 262/3/4 265/3/4
f 265/3/4 266/3/4 267/3/4
f 267/3/4 266/3/4 268/3/4
f 269/3/4 270/3/4 271/3/4
f 271/3/4 270/3/4 272/3/4
f 273/3/4 274/3/4 275/3/4
f 275/3/4 274/3/4 276/3/4
f 277/3/4 278/3/4 279/3/4
f 279/3/4 278/3/4 280/3/4
f 281/3/4 282/3/4 283/3/4
f 283/3/4 282/3/4 284/3/4
f 285/3/4 286/3/4 287/3/4
f 287/3/4 286/3/4 288/3/4
f 291/3/5 290/3/5 289/3/5
f 292/3/5 290/3/5 291/3/5
f 296/3/5 294/3/5 293/3/5
f 297/3/5 294/3/5 296/3/5
f 299/3/5 296/3/5 295/3/5
f 300/3/5 296/3/5 299/3/5
f 301/3/5 298/3/5 297/3/5
f 302/3/5 298/3/5 301/3/5
f 303/3/5 301/3/5 300/3/5
f 304/3/5 301/3/5 303/3/5
f 308/3/5 306/3/5 305/3/5
f 309/3/5 306/3/5 308/3/5
f 312/3/5 308/3/5 307/3/5
f 313/3/5 308/3/5 312/3/5
f 314/3/5 310/3/5 309/3/5
f 315/3/5 310/3/5 314/3/5
f 317/3/5 312/3/5 311/3/5
f 318/3/5 312/3/5 317/3/5
f 321/3/5 316/3/5 315/3/5
f 322/3/5 316/3/5 321/3/5
f 323/3/5 319/3/5 318/3/5
f 324/3/5 319/3/5 323/3/5
f 325/3/5 321/3/5 320/3/5
f 326/3/5 321/3/5 325/3/5
f 327/3/5 325/3/5 324/3/5
f 328/3/5 325/3/5 327/3/5
f 332/3/5 330/3/5 329/3/5
f 333/3/5 330/3/5 332/3/5
f 334/3/5 330/3/5 333/3/5
f 335/3/5 330/3/5 334/3/5
f 338/3/5 332/3/5 331/3/5
f 338/3/5 333/3/5 332/3/5
f 339/3/5 333/3/5 338/3/5
f 340/3/5 333/3/5 339/3/5
f 341/3/5 335/3/5 334/3/5
f 341/3/5 336/3/5 335/3/5
f 342/3/5 336/3/5 341/3/5
f 343/3/5 336/3/5 342/3/5
f 345/3/5 339/3/5 338/3/5
f 345/3/5 338/3/5 337/3/5
f 346/3/5 339/3/5 345/3/5
f 347/3/5 344/3/5 343/3/5
f 347/3/5 343/3/5 342/3/5
f 348/3/5 344/3/5 347/3/5
f 349/3/5 345/3/5 337/3/5
f 352/3/5 344/3/5 348/3/5
f 353/3/5 350/3/5 349/3/5
f 353/3/5 349/3/5 337/3/5
f 354/3/5 350/3/5 353/3/5
f 355/3/5 350/3/5 354/3/5
f 358/3/5 352/3/5 351/3/5
f 359/3/5 344/3/5 352/3/5
f 359/3/5 352/3/5 358/3/5
f 360/3/5 344/3/5 359/3/5
f 361/3/5 356/3/5 355/3/5
f 361/3/5 355/3/5 354/3/5
f 362/3/5 356/3/5 361/3/5
f 363/3/5 356/3/5 362/3/5
f 364/3/5 358/3/5 357/3/5
f 364/3/5 359/3/5 358/3/5
f 365/3/5 359/3/5 364/3/5
f 366/3/5 359/3/5 365/3/5
f 367/3/5 363/3/5 362/3/5
f 367/3/5 365/3/5 364/3/5
f 367/3/5 364/3/5 363/3/5
f 368/3/5 365/3/5 367/3/5
f 369/2/6 370/2/6 374/2/6
f 370/1/6 371/1/6 375/1/6
f 374/2/6 370/2/6 375/2/6
f 371/2/6 372/2/6 376/2/6
f 375/1/6 371/1/6 376/1/6
f 376/2/6 372/2/6 377/2/6
f 373/2/6 374/2/6 380/2/6
f 374/1/6 375/1/6 381/1/6
f 380/2/6 374/2/6 381/2/6
f 375/2/6 376/2/6 382/2/6
f 381/1/6 375/1/6 382/1/6
f 376/1/6 377/1/6 383/1/6
f 382/2/6 376/2/6 383/2/6
f 377/2/6 378/2/6 384/2/6
f 383/1/6 377/1/6 384/1/6
f 384/2/6 378/2/6 385/2/6
f 379/2/6 380/2/6 387/2/6
f 380/1/6 381/1/6 388/1/6
f 387/2/6 380/2/6 388/2/6
f 381/2/6 382/2/6 389/2/6
f 388/1/6 381/1/6 389/1/6
f 382/1/6 383/1/6 390/1/6
f 389/2/6 382/2/6 390/2/6
f 383/2/6 384/2/6 391/2/6
f 390/1/6 383/1/6 391/1/6
f 384/1/6 385/1/6 392/1/6
f 391/2/6 384/2/6 392/2/6
f 385/2/6 386/2/6 393/2/6
f 392/1/6 385/1/6 393/1/6
f 393/2/6 386/2/6 394/2/6
f 387/1/6 388/1/6 395/1/6
f 388/2/6 389/2/6 396/2/6
f 395/1/6 388/1/6 396/1/6
f 389/1/6 390/1/6 397/1/6
f 396/2/6 389/2/6 397/2/6
f 390/2/6 391/2/6 398/2/6
f 397/1/6 390/1/6 398/1/6
f 391/1/6 392/1/6 399/1/6
f 398/2/6 391/2/6 399/2/6
f 392/2/6 393/2/6 400/2/6
f 399/1/6 392/1/6 400/1/6
f 393/1/6 394/1/6 401/1/6
f 400/2/6 393/2/6 401/2/6
f 401/1/6 394/1/6 402/1/6
f 395/2/6 396/2/6 403/2/6
f 396/1/6 397/1/6 404/1/6
f 403/2/6 396/2/6 404/2/6
f 397/2/6 398/2/6 405/2/6
f 404/1/6 397/1/6 405/1/6
f 398/1/6 399/1/6 406/1/6
f 405/2/6 398/2/6 406/2/6
f 399/2/6 400/2/6 407/2/6
f 406/1/6 399/1/6 407/1/6
f 400/1/6 401/1/6 408/1/6
f 407/2/6 400/2/6 408/2/6
f 401/2/6 402/2/6 409/2/6
f 408/1/6 401/1/6 409/1/6
f 409/2/6 402/2/6 410/2/6
f 404/2/6 405/2/6 411/2/6
f 405/1/6 406/1/6 412/1/6
f 411/2/6 405/2/6 412/2/6
f 406/2/6 407/2/6 413/2/6
f 412/1/6 406/1/6 413/1/6
f 407/1/6 408/1/6 414/1/6
f 413/2/6 407/2/6 414/2/6
f 408/2/6 409/2/6 415/2/6
f 414/1/6 408/1/6 415/1/6
f 415/2/6 409/2/6 416/2/6
f 412/2/6 413/2/6 417/2/6
f 413/1/6 414/1/6 418/1/6
f 417/2/6 413/2/6 418/2/6
f 414/2/6 415/2/6 419/2/6
f 418/1/6 414/1/6 419/1/6
f 419/2/6 415/2/6 420/2/6
f 421/3/6 422/3/6 424/3/6
f 424/3/6 422/3/6 425/3/6
f 425/3/6 422/3/6 426/3/6
f 426/3/6 422/3/6 427/3/6
f 423/3/6 424/3/6 430/3/6
f 424/3/6 425/3/6 430/3/6
f 430/3/6 425/3/6 431/3/6
f 431/3/6 425/3/6 432/3/6
f 426/3/6 427/3/6 433/3/6
f 427/3/6 428/3/6 433/3/6
f 433/3/6 428/3/6 434/3/6
f 434/3/6 428/3/6 435/3/6
f 430/3/6 431/3/6 437/3/6
f 429/3/6 430/3/6 437/3/6
f 437/3/6 431/3/6 438/3/6
f 435/3/6 436/3/6 439/3/6
f 434/3/6 435/3/6 439/3/6
f 439/3/6 436/3/6 440/3/6
f 429/3/6 437/3/6 441/3/6
f 440/3/6 436/3/6 444/3/6
f 441/3/6 442/3/6 445/3/6
f 429/3/6 441/3/6 445/3/6
f 445/3/6 442/3/6 446/3/6
f 446/3/6 442/3/6 447/3/6
f 443/3/6 444/3/6 450/3/6
f 444/3/6 436/3/6 451/3/6
f 450/3/6 444/3/6 451/3/6
f 451/3/6 436/3/6 452/3/6
f 447/3/6 448/3/6 453/3/6
f 446/3/6 447/3/6 453/3/6
f 453/3/6 448/3/6 454/3/6
f 454/3/6 448/3/6 455/3/6
f 449/3/6 450/3/6 456/3/6
f 450/3/6 451/3/6 456/3/6
f 456/3/6 451/3/6 457/3/6
f 457/3/6 451/3/6 458/3/6
f 454/3/6 455/3/6 459/3/6
f 456/3/6 457/3/6 459/3/6
f 455/3/6 456/3/6 459/3/6
f 459/3/6 457/3/6 460/3/6
